<?xml version="1.0" encoding="UTF-8" standalone="no"?>
<svg
   xmlns:dc="http://purl.org/dc/elements/1.1/"
   xmlns:cc="http://creativecommons.org/ns#"
   xmlns:rdf="http://www.w3.org/1999/02/22-rdf-syntax-ns#"
   xmlns:svg="http://www.w3.org/2000/svg"
   xmlns="http://www.w3.org/2000/svg"
   version="1.1"
   id="svg2"
   viewBox="0 0 999.58246 996.39171"
   height="996.39172"
   width="999.58246">
  <defs
     id="defs4" />
  <metadata
     id="metadata7">
    <rdf:RDF>
      <cc:Work
         rdf:about="">
        <dc:format>image/svg+xml</dc:format>
        <dc:type
           rdf:resource="http://purl.org/dc/dcmitype/StillImage" />
        <dc:title></dc:title>
      </cc:Work>
    </rdf:RDF>
  </metadata>
  <g
     transform="translate(-7.3251636,935.61169)"
     id="layer1">
    <g
       transform="matrix(1,0,0,0.99429772,-1.0101523,-3.6709876)"
       id="g3478">
      <path
         id="path3482"
         d="m 506.99953,47.713703 c -6.95353,-0.07625 -13.23718,5.519264 -21.29698,5.059193 -8.05982,-0.460071 -26.97447,-5.780913 -35.92145,-6.907159 -8.94698,-1.126247 -20.01334,2.104975 -25.81412,1.034317 -5.8008,-1.070659 -14.87073,-2.910176 -20.15541,-4.08783 C 398.52688,41.634569 391.19651,35.326008 385.0774,33.710128 241.54114,-4.9108661 146.15455,-100.61533 83.141918,-228.69552 38.267045,-322.14894 9.0573402,-424.2108 22.559108,-511.7399 43.151533,-645.05346 120.77612,-769.9481 220.83557,-841.76514 c 58.29812,-41.33892 127.07111,-69.70925 197.18161,-82.5126 48.94593,-9.22091 99.78148,-10.51429 149.69057,-4.59188 9.17866,1.08917 24.06984,3.36247 33.09151,5.05177 9.02166,1.6893 23.58615,4.91885 32.36552,7.17679 378.95172,102.16554 457.41862,580.54449 227.98973,821.273277 -7.55,7.499021 -30.92016,17.091461 -36.74355,22.130752 -58.66571,62.481171 -122.56612,94.802659 -207.97131,111.231558 -8.90052,1.697597 -41.54182,9.708609 -50.72048,10.823069 -9.17866,1.114471 -21.42586,7.513352 -30.88266,8.073581 -9.45681,0.56024 -20.88344,-9.101172 -27.83698,-9.177474 z m 176.444,-229.144233 c 56.41156,-39.00868 100.20061,-106.25264 117.7364,-162.47621 1.74938,-5.99777 9.90756,-21.83198 11.0401,-27.22161 21.00241,-90.9487 6.8044,-256.49461 -57.89098,-254.19651 -3.29862,-4.32702 -20.30784,-2.71413 -16.34544,3.12756 0.11523,0.16988 5.94681,4.82087 2.44663,7.32228 0,0 -7.33988,27.79111 -5.36533,33.90142 17.33205,74.45491 36.24294,120.68455 21.84805,199.1959 -28.42644,100.56326 -6.77621,47.35155 -45.40113,125.05019 -10.61759,21.93382 -26.00547,43.92538 -37.64773,60.18852 -4.2143,5.53366 -7.13378,12.33278 -6.61889,13.61954 l 1.16976,2.92335 10.07898,-6.94594 z m -428.35736,-91.51122 c 0.23766,-0.23734 5.12763,-0.81845 4.53925,-2.06746 -0.58845,-1.249 13.25939,-12.73719 5.59182,-20.75194 -5.86849,-6.13422 -2.1699,-17.10912 -2.99942,-22.10846 -0.82951,-4.99935 -10.73201,-20.83767 -12.08548,-27.70146 -9.54376,-53.96228 2.32655,-100.50634 15.20829,-152.08404 2.44169,-9.72095 6.33409,-23.58278 8.64977,-30.80406 16.67399,-50.24809 58.04823,-111.90717 91.39635,-152.90012 4.36705,-5.34307 -15.75576,-1.88665 -15.1848,-4.05513 l 2.22276,-8.44185 -22.11141,7.31554 c -38.59608,26.44477 -71.15857,54.63534 -95.01021,92.50738 -32.51875,107.27248 -48.14816,191.09921 1.78825,291.57107 2.91977,5.83257 9.51895,16.37057 12.37318,21.1898 2.85423,4.81923 5.38397,8.56806 5.62165,8.33073 z m 571.93214,-274.13013 c 0.27814,0 0.787,-0.45449 1.1308,-1.00997 0.34381,-0.55548 0.39752,-1.00997 0.11938,-1.00997 -0.27814,0 -0.787,0.45449 -1.1308,1.00997 -0.3438,0.55548 -0.39752,1.00997 -0.11938,1.00997 z M 354.80325,-734.92615 c 0.27814,0 0.50571,-0.22724 0.50571,-0.50499 0,-0.27774 -0.22757,-0.50499 -0.50571,-0.50499 -0.27814,0 -0.50571,0.22725 -0.50571,0.50499 0,0.27775 0.22757,0.50499 0.50571,0.50499 z"
         style="fill:#e4ac50" />
      <path
         id="path3480"
         d="m 504.99953,64.811157 c -6.95353,-0.07658 -19.23718,-0.517362 -27.29698,-0.979412 -8.05982,-0.462051 -21.97447,-1.765537 -30.92145,-2.896629 -8.94698,-1.131093 -21.01334,-2.936279 -26.81412,-4.011544 -5.8008,-1.075265 -14.87073,-2.922697 -20.15541,-4.105418 -5.28469,-1.182722 -14.61506,-3.478177 -20.73417,-5.101009 -6.11911,-1.622833 -17.04248,-4.837307 -24.27415,-7.143291 -7.23167,-2.305984 -20.65831,-7.156599 -29.83697,-10.779153 L 308.2778,23.208249 288.04935,13.253461 267.82089,3.2986822 251.73444,-6.4719879 c -8.84756,-5.3738801 -20.45363,-12.8053981 -25.79129,-16.5144931 -5.33765,-3.709106 -14.93893,-10.72722 -21.33618,-15.595819 -6.39725,-4.868609 -16.8735,-13.383902 -23.28056,-18.922892 -6.40706,-5.53899 -18.14208,-16.582341 -26.07782,-24.540776 -7.93575,-7.958434 -19.30623,-20.174582 -25.26774,-27.146992 -5.96151,-6.97241 -14.87515,-17.99389 -19.80808,-24.49216 -4.93294,-6.49829 -13.182798,-18.20525 -18.333027,-26.01547 -5.150227,-7.81022 -12.922234,-20.36237 -17.271126,-27.89365 -4.34889,-7.53129 -11.627837,-21.45276 -16.175436,-30.9366 -4.547598,-9.48384 -10.56415,-22.94887 -13.370116,-29.92228 -2.805965,-6.97342 -7.602657,-20.21022 -10.659316,-29.41513 l -5.557562,-16.73619 -4.629222,-18.52697 c -2.546073,-10.18983 -5.759368,-24.79596 -7.140655,-32.45807 -1.381288,-7.66211 -3.433231,-21.41037 -4.559874,-30.5517 l -2.048442,-16.6206 -1.0463388,-23.03421 -1.0463393,-23.0342 1.0368118,-19.99852 c 0.5702465,-10.99919 1.7265163,-26.01833 2.5694873,-33.37586 0.842972,-7.35753 2.470844,-19.08285 3.617493,-26.05626 1.146649,-6.97341 3.20349,-17.91819 4.570758,-24.32173 1.367269,-6.40354 4.057101,-17.4583 5.977406,-24.56611 1.920305,-7.10782 5.140455,-18.07223 7.15589,-24.36537 2.015433,-6.29314 6.603639,-18.97335 10.196009,-28.17826 l 6.531583,-16.73619 9.984848,-20.28629 9.984848,-20.2863 9.589113,-15.96451 c 5.274012,-8.78048 12.670911,-20.41974 16.437553,-25.86502 3.766641,-5.44529 10.194054,-14.35274 14.283144,-19.79434 4.08909,-5.44161 12.52629,-15.93976 18.74934,-23.32924 l 11.31464,-13.43541 14.20453,-14.2004 c 7.8125,-7.81023 18.9741,-18.33861 24.80356,-23.39641 5.82945,-5.05781 14.92284,-12.62247 20.20752,-16.81037 5.28469,-4.18789 14.86326,-11.32895 21.28572,-15.869 6.42245,-4.54006 18.71124,-12.62111 27.30842,-17.9579 l 15.63121,-9.70326 22.2513,-11.06161 22.2513,-11.0616 16.68848,-6.56685 c 9.17866,-3.61176 22.6053,-8.4609 29.83697,-10.77586 7.23167,-2.31496 21.34102,-6.24839 31.35411,-8.74096 10.01308,-2.49256 24.35,-5.64237 31.85982,-6.99957 7.50981,-1.3572 20.93645,-3.38899 29.83697,-4.51509 l 16.18276,-2.04745 22.60476,-1.09472 22.60475,-1.09472 20.88642,1.07575 20.88643,1.07575 16.68848,1.98884 c 9.17866,1.09386 24.06984,3.37694 33.09151,5.0735 9.02166,1.69657 23.58615,4.94002 32.36552,7.20767 8.77938,2.26765 22.76318,6.39642 31.07511,9.17504 8.31194,2.77863 21.51101,7.58877 29.33126,10.68921 7.82026,3.10044 21.95604,9.37821 31.41284,13.9506 9.4568,4.57238 23.33858,11.88348 30.8484,16.24687 7.50981,4.3634 19.37001,11.7103 26.35599,16.32645 6.98598,4.61615 18.13692,12.46175 24.77986,17.43467 6.64294,4.97292 18.12989,14.18223 25.52654,20.46515 l 13.44849,11.4235 14.36564,14.38682 c 7.90111,7.91275 18.49463,19.17378 23.54118,25.02453 5.04653,5.85074 12.85652,15.28785 17.35551,20.97135 4.49899,5.6835 12.15584,16.11899 17.01521,23.18998 4.85938,7.07099 13.06395,19.87756 18.23237,28.45903 5.16843,8.58148 13.04036,22.82646 17.4932,31.6555 4.45284,8.82905 11.12147,23.32326 14.81919,32.20936 3.69771,8.8861 9.15496,23.45961 12.12721,32.38558 2.97226,8.92597 7.21432,23.07566 9.42683,31.44376 2.21251,8.36809 5.18165,20.92024 6.59809,27.89365 1.41645,6.97342 3.2611,17.01513 4.0992,22.31493 0.838,5.29979 2.2226,15.56973 3.0768,22.82208 l 1.553,13.18609 1.1355,22.74451 1.1356,22.74453 -1.1443,21.37816 -1.1442,21.37817 -2.0076,16.22904 c -1.1041,8.92597 -2.7036,20.10879 -3.5544,24.85071 -0.85078,4.74192 -2.94347,15.01185 -4.65043,22.82208 -1.70696,7.81022 -5.07782,21.04703 -7.4908,29.41512 -2.41299,8.3681 -6.30317,20.69202 -8.64485,27.3865 -2.34169,6.69448 -7.17837,19.214 -10.74819,27.82117 -3.56982,8.60716 -10.10549,22.81701 -14.52372,31.57742 -4.41823,8.76042 -11.96689,22.48628 -16.77482,30.50192 -4.80793,8.01565 -11.4448,18.60719 -14.74861,23.53677 -3.30381,4.92957 -10.69679,15.19951 -16.42886,22.82208 -5.73206,7.62257 -15.11955,19.33651 -20.86108,26.03099 -5.74154,6.69447 -16.61643,18.333735 -24.16643,25.865022 -7.55,7.531286 -18.49186,17.834036 -24.31525,22.895009 -5.8234,5.060964 -15.22487,12.893279 -20.89216,17.405133 -5.6673,4.511854 -16.07304,12.190602 -23.12387,17.063867 -7.05083,4.873274 -19.93685,13.186009 -28.6356,18.4727492 l -15.81592,9.6122545 -20.22845,9.9315913 -20.22846,9.931591 -16.68847,6.577973 c -9.17866,3.617888 -23.28801,8.662592 -31.35411,11.210459 -8.0661,2.547867 -20.81002,6.209117 -28.31984,8.136102 -7.50981,1.926985 -20.93645,4.898531 -29.83697,6.603442 -8.90052,1.704901 -23.69258,4.015581 -32.87124,5.134836 -9.17866,1.119266 -24.42586,2.495367 -33.88266,3.058007 -9.45681,0.56265 -22.88344,0.960292 -29.83698,0.883661 z m 44.43774,-29.771637 3.60485,-0.670503 1.77409,-1.596582 1.7741,-1.596582 2.57205,1.175256 c 1.41461,0.646382 3.36987,1.175246 4.345,1.175246 0.97513,0 2.22922,-0.457547 2.78685,-1.016779 l 1.01387,-1.01677 -0.8467,-5.829854 c -0.46568,-3.206411 -1.05818,-8.340274 -1.31667,-11.408576 -0.25848,-3.068302 -1.1288,-10.3713674 -1.93403,-16.2290346 -0.80525,-5.8576673 -2.00025,-15.2147204 -2.65557,-20.7934504 l -1.19151,-10.143147 -1.42445,-1.638676 -1.42444,-1.638687 0.64672,-4.05595 0.64672,-4.05595 -1.60246,-10.534409 c -0.88136,-5.793917 -2.32254,-16.239918 -3.20263,-23.213331 l -1.60019,-12.678934 -0.8652,-0.878193 -0.8652,-0.878184 0.54493,-5.294895 0.54492,-5.294895 -1.17139,-2.19501 -1.17139,-2.19501 -2.43328,0 -2.43328,0 -0.53787,0.87277 -0.53786,0.87277 -7.04709,0.0442 c -3.8759,0.0243 -7.45818,0.29903 -7.9606,0.61044 l -0.91351,0.56619 1.36743,9.42068 c 0.75209,5.181362 1.87244,10.672304 2.48966,12.202083 l 1.12223,2.781424 -0.53212,2.791617 -0.53213,2.791617 2.80777,20.852109 2.80776,20.852118 1.34923,2.166648 1.34923,2.166647 -1.35504,2.539164 -1.35505,2.539165 1.65644,9.07985 c 0.91105,4.9939482 1.65645,10.9769949 1.65645,13.295698 l 0,4.2158265 1.47854,2.867356 1.47855,2.8673662 -0.11276,4.4360443 c -0.062,2.439833 0.24472,7.859367 0.68161,12.043415 l 0.79436,7.60736 1.06211,1.345407 1.06211,1.345407 3.60484,-0.670492 z m -92.31496,-1.513165 2.24382,0 0.70738,-1.147839 0.70739,-1.147849 0.20923,-7.220247 c 0.11508,-3.971143 0.4791,-7.90492 0.80895,-8.741729 0.32984,-0.83681 1.56518,-11.9390722 2.74518,-24.6716933 l 2.14548,-23.1502317 -1.17617,-1.421247 -1.17616,-1.421248 2.04096,-4.336489 2.04096,-4.3365 0.7077,-11.664618 c 0.38923,-6.415541 1.27514,-16.677758 1.96868,-22.804929 l 1.26098,-11.140299 -1.08072,-1.735472 -1.08073,-1.735462 1.7251,-1.911659 1.72509,-1.911658 0,-4.106775 0,-4.10677 -1.51964,-1.2648 -1.51965,-1.2648 -3.17655,0.63713 -3.17656,0.63712 -1.26525,-1.05306 -1.26526,-1.05307 -5.0537,-0.60025 -5.05371,-0.60025 -0.71348,4.23518 c -0.39243,2.32934 -0.80981,8.678839 -0.92753,14.109997 l -0.21404,9.87482 -0.80264,1.302411 -0.80264,1.30241 -1.92082,20.459022 -1.92081,20.459031 0.62637,3.348405 0.62637,3.348415 -1.59415,1.766551 -1.59415,1.76655 -1.09262,13.566236 c -0.60095,7.4614305 -1.28871,13.88440577 -1.52836,14.27327373 -0.23965,0.3888781 0.0962,2.12039437 0.7464,3.84781287 l 1.18212,3.1407645 -1.61045,1.8258679 -1.61046,1.825868 -0.36215,10.650304 -0.36215,10.650304 3.40706,0.326812 3.40706,0.326823 2.8557,-1.186262 2.8557,-1.186251 2.30653,1.620175 2.30652,1.620175 z M 651.31913,15.260526 c 0.0929,0.0041 2.33029,-0.920917 4.97187,-2.056473 l 4.80285,-2.064627 1.28144,-1.7390527 1.28144,-1.7390425 1.2818,1.2678933 c 0.70499,0.6973414 1.62818,1.2678929 2.05153,1.2678929 0.42336,0 1.69775,-0.9989473 2.83198,-2.219888 l 2.06225,-2.2198886 0,-3.2346495 0,-3.23463933 -1.35734,-1.12971327 -1.35733,-1.1297132 -0.66551,0.6674089 -0.66551,0.6674089 0,-2.9628132 0,-2.962803 -2.43795,-6.5886537 c -1.34087,-3.623761 -5.70202,-15.032823 -9.69143,-25.353475 l -7.25349,-18.764821 -1.43421,-1.601339 -1.43422,-1.601339 0,-2.250633 0,-2.250642 -8.64024,-22.5202 -8.64024,-22.520214 -0.96828,-0.3381 -0.96827,-0.33811 0,-2.16377 c 0,-1.19007 -0.74455,-4.1189 -1.65455,-6.50852 l -1.65454,-4.34474 -1.93373,0 -1.93373,0 -2.45808,2.65989 -2.45809,2.65991 -2.11399,-0.5544 -2.11398,-0.5544 -3.21816,1.07588 c -1.76999,0.59173 -3.61042,1.42978 -4.08985,1.86233 l -0.87167,0.78645 3.23125,9.72681 3.23125,9.726811 1.91474,1.344971 1.91474,1.344971 -0.13327,3.555194 -0.13328,3.555193 3.15054,7.016643 c 1.73279,3.859143 3.64339,8.962505 4.24575,11.340789 l 1.09523,4.324155 2.99171,3.417105 2.99171,3.417114 0,2.472818 0,2.472818 7.10913,19.201048 7.10913,19.201038 2.08873,2.877225 2.08873,2.8772255 -0.53771,2.062051 -0.5377,2.0620612 3.72977,10.0136898 c 2.05138,5.5075355 3.80583,10.0173715 3.89878,10.0218655 z m -296.01017,-4.609148 6.57425,-0.518527 5.24938,-2.548527 5.24936,-2.5485163 4.99532,-5.4813058 4.99532,-5.4812957 0.64789,-3.4634078 0.64789,-3.4634084 2.11365,-1.914305 2.11366,-1.914306 2.82907,-5.615439 c 1.55599,-3.088497 4.46463,-10.56924 6.46366,-16.623867 l 3.63458,-11.008428 0,-3.408848 0,-3.408848 0.99686,0 0.99686,0 2.97658,-5.913414 2.97657,-5.913424 1.65871,-6.419476 1.65871,-6.419486 -0.59542,-2.379136 -0.59542,-2.379146 1.59371,-2.439275 1.59371,-2.439264 0,-7.827619 0,-7.827629 -2.07903,-2.21935 -2.07904,-2.21936 0,-2.00565 0,-2.00564 -4.29854,-4.14999 c -2.3642,-2.28249 -5.32691,-4.6781 -6.58381,-5.32358 l -2.28526,-1.17359 -1.00186,2.64263 c -0.55103,1.45346 -1.00187,3.73134 -1.00187,5.06199 l 0,2.41936 -1.3363,0.81113 -1.33629,0.81114 -1.68115,4.28919 -1.68115,4.28919 1.07614,2.81101 1.07612,2.811015 -0.81911,6.593046 c -0.45051,3.626174 -0.68405,8.304701 -0.51899,10.396725 l 0.30012,3.80368 -0.97517,0 -0.97518,0 -3.77466,9.889568 c -2.07605,5.439263 -5.99178,15.505534 -8.70159,22.369493 l -4.92694,12.479915 0,2.445442 0,2.445441 -2.08786,2.317983 c -1.14831,1.274902 -3.55812,4.37198 -5.35512,6.882409 l -3.26726,4.564416 -3.19197,2.02863 -3.19197,2.028629 -1.57582,3.8459769 -1.57582,3.8459668 0.62404,2.4934999 0.62405,2.4934898 -1.46444,0 -1.46443,0 -1.17377,2.5835102 c -0.64558,1.4209331 -1.17377,3.4368836 -1.17377,4.4798932 l 0,1.8963732 1.26428,0.570917 1.26427,0.570917 z m -18.45846,-6.2269282 1.26428,-1.715267 0,-3.23203254 0,-3.23204276 1.44341,-1.2013441 1.4434,-1.2013543 1.54646,-4.5515851 1.54646,-4.551585 -1.11395,-2.451842 -1.11395,-2.451852 1.00219,-7.38771 1.00217,-7.387721 -1.1081,-1.819974 -1.10811,-1.819975 2.16798,-1.730127 2.16798,-1.730126 0.677,-2.535787 c 0.37235,-1.394683 1.08783,-3.44867 1.58994,-4.564416 0.50212,-1.115746 1.87876,-4.9955 3.05918,-8.621675 1.18043,-3.626175 4.15455,-11.316374 6.60916,-17.089326 l 4.46292,-10.49627 0,-2.892998 0,-2.892988 1.26428,-0.811137 c 0.69535,-0.446126 3.03793,-3.452352 5.20573,-6.68051 l 3.94146,-5.869375 2.90091,-2.07153 2.90091,-2.07154 1.50187,-2.9126 1.50188,-2.91261 0,-2.25271 0,-2.25271 1.35056,-1.60134 c 0.7428,-0.88074 1.96115,-3.14598 2.70744,-5.03387 l 1.35688,-3.43253 -1.88934,-1.38546 -1.88933,-1.38547 -2.78126,0 -2.78127,0 -0.66168,1.07371 -0.66169,1.07369 -2.69852,-0.59439 -2.69851,-0.59439 -6.05515,3.64939 c -3.33033,2.00717 -7.14335,4.64424 -8.47336,5.86016 -1.33002,1.21592 -3.71951,4.24 -5.30997,6.72019 l -2.89176,4.50942 0,1.67283 0,1.67284 -2.13047,1.93226 c -1.17175,1.06275 -2.98025,3.60201 -4.01887,5.642807 -1.03862,2.040801 -3.9486,9.742472 -6.46662,17.114815 l -4.57822,13.40426 0,2.410742 0,2.410752 -1.06709,0 -1.06708,0 -2.41491,5.476153 c -1.3282,3.011886 -3.19157,8.146854 -4.14083,11.41104 l -1.72592,5.934887 0.14943,3.954986 0.14943,3.954975 -1.11478,1.347081 -1.11479,1.347081 0.35759,8.538998 0.35758,8.538998 1.76999,1.96069 1.76999,1.9606806 0.0272,2.4559195 0.0272,2.4559196 2.7542,3.2178423 c 1.51482,1.76981681 4.3472,4.1661048 6.29419,5.325081 l 3.53998,2.1072388 1.26428,-1.715267 z M 683.45912,3.6888789 c 0.58737,-0.2530816 2.82405,-1.0333127 4.97038,-1.7338492 l 3.90243,-1.27370534 1.09492,-2.40997106 1.09493,-2.4099711 1.88504,0.4943668 1.88505,0.4943567 4.53038,-1.5480674 4.5304,-1.5480775 -0.64385,-2.1751471 c -0.35411,-1.1963334 -1.50739,-3.6846707 -2.56283,-5.5296477 l -1.91899,-3.354501 0,-2.067731 0,-2.067732 -1.73468,-2.944971 -1.73468,-2.944971 -2.05816,0.591852 c -1.13198,0.325524 -3.34921,1.509118 -4.92718,2.63022 l -2.86902,2.038366 -1.99053,-0.522027 -1.99052,-0.522017 -4.51482,1.542753 -4.51483,1.542752 -0.95104,1.78212 -0.95104,1.782121 1.014,3.682936 1.01401,3.6829358 2.0272,1.0880249 2.0272,1.088025 -0.5887,1.8601314 -0.5887,1.8601314 1.74783,3.6757242 1.74784,3.6757242 z m -187.34851,-27.0284429 0.71957,0.06431 1.08826,-4.053019 1.08825,-4.053029 -1.11291,-2.08542 -1.11289,-2.085431 1.7361,-4.558939 1.73611,-4.558929 -1.04428,-1.047269 -1.04428,-1.04726 -5.43245,-0.342362 c -2.98786,-0.188297 -7.56357,-0.664609 -10.16828,-1.058468 l -4.73581,-0.716096 -0.32599,3.927853 -0.32597,3.927862 0.88422,2.191123 0.88421,2.191133 -1.5036,2.152832 -1.5036,2.152832 0.67312,3.263395 0.67313,3.263406 6.52519,0.07151 6.52519,0.07141 2.52856,1.132147 c 1.39071,0.622678 2.85238,1.161076 3.24815,1.196435 z M 574.78,-29.938898 c 1.94276,-0.341409 3.99089,-0.921637 4.5514,-1.289387 0.56052,-0.36776 3.29483,-0.668657 6.07625,-0.668657 l 5.05711,0 0.32228,-3.368305 0.32227,-3.368316 -1.64133,-2.512143 -1.64132,-2.512143 0.58901,-4.262698 0.589,-4.262688 -0.96045,-1.452336 -0.96044,-1.452327 -3.98968,1.198748 -3.98968,1.198758 -4.60419,0 c -2.53231,0 -5.32413,0.277049 -6.20405,0.615678 l -1.59986,0.615679 0,3.247714 0,3.247714 1.43797,1.968917 1.43797,1.968916 -0.57914,4.917134 -0.57913,4.917134 1.41687,0.936679 1.41687,0.936669 z m 182.7216,-4.49383 c 0.29076,0 2.5374,-1.446697 4.99254,-3.214891 l 4.4639,-3.214891 0,-1.349525 0,-1.349525 1.9108,0 1.91079,0 2.37122,-1.925585 2.37122,-1.925586 -1.7371,-3.653145 -1.73709,-3.653146 -1.5335,0 -1.5335,0 0,-1.834256 0,-1.834256 -15.18546,-21.74856 -15.18546,-21.748556 -3.02015,-2.77507 -3.02015,-2.77507 0,-1.36785 0,-1.36784 -10.94743,-15.63622 c -6.02108,-8.59993 -12.48066,-17.80432 -14.35461,-20.45422 l -3.40719,-4.818 -1.32244,0 -1.32244,0 0,-1.87644 0,-1.87644 -3.05741,-4.23271 -3.05741,-4.23271 -1.86099,0.99882 -1.86098,0.99881 -1.28863,3.11993 -1.28864,3.11994 -1.12578,-0.40459 -1.12579,-0.40459 -3.53998,1.8486 c -1.94698,1.01673 -4.14201,2.25605 -4.87783,2.75404 l -1.33786,0.90544 5.74716,8.84213 5.74716,8.84215 2.41781,1.10477 2.41779,1.10477 0,2.26222 0,2.26222 3.55136,4.92875 c 1.95325,2.71081 5.61111,8.0406 8.12859,11.84397 l 4.57724,6.91521 2.94852,1.69706 2.94852,1.697065 0.57674,2.304492 0.57674,2.304493 12.2302,17.801435 12.23019,17.801436 1.90723,1.194487 1.90723,1.194488 0,1.718167 0,1.718168 6.13311,9.195311 c 3.37321,5.057413 6.37099,9.1953 6.66176,9.1953 z M 248.43546,-49.330323 c 2.87404,-0.853515 6.59093,-2.239029 8.25978,-3.078912 1.66885,-0.839883 4.28591,-2.701454 5.81568,-4.136821 l 2.78142,-2.609761 0,-1.263349 0,-1.263349 1.94858,-0.620233 1.9486,-0.620223 6.21311,-6.660822 6.2131,-6.660822 -2.07387,-1.937625 -2.07387,-1.937625 -2.82901,-0.567418 -2.829,-0.567418 -1.55845,-2.707621 -1.55844,-2.707612 -2.72406,-1.445875 -2.72408,-1.445875 -3.05916,2.93924 -3.05916,2.939241 -0.55351,2.211662 -0.5535,2.211663 -4.88545,3.045642 c -2.687,1.67511 -5.94854,3.379503 -7.24786,3.787552 -1.29932,0.408039 -3.54899,1.736182 -4.99927,2.951422 l -2.63686,2.209533 0.35082,3.213683 0.35081,3.213694 -2.42229,0.609695 -2.42231,0.609694 -2.37161,2.535056 -2.37162,2.535047 2.93515,2.534671 2.93514,2.53466 3.1334,-0.557213 3.13338,-0.557224 1.85445,1.407747 1.85445,1.407747 z m 536.66117,-4.374384 c 0.43867,0 3.0227,-2.08113 5.74227,-4.624727 l 4.94469,-4.624727 4.04569,-1.803482 c 2.22513,-0.991909 4.63588,-2.520674 5.35723,-3.397245 l 1.31154,-1.593782 -4.09295,-4.314895 -4.09296,-4.314884 0,-1.340376 0,-1.340377 -2.81219,-3.156385 -2.81219,-3.156385 -4.26892,4.154704 c -2.34792,2.285079 -4.75534,4.154694 -5.34982,4.154694 -0.59448,0 -3.09724,1.391254 -5.56166,3.091672 l -4.48079,3.091671 0,1.569825 c 0,0.863405 0.78084,2.895462 1.73521,4.515688 l 1.73521,2.945864 1.80477,0 1.80477,0 0,2.398996 0,2.398997 2.09626,2.672577 c 1.15294,1.469914 2.45516,2.672577 2.89384,2.672577 z M 660.6487,-54.719022 c 0.48088,0 2.63669,-0.738461 4.79069,-1.641039 2.15398,-0.902568 4.14392,-1.619648 4.42206,-1.593519 0.27814,0.02617 0.86968,-0.604724 1.31453,-1.401905 l 0.80883,-1.449425 2.54479,0 c 1.39964,0 3.42515,-0.472498 4.50114,-1.049998 l 1.95636,-1.050009 0,-1.531889 0,-1.531889 -2.60698,-2.614436 -2.60699,-2.614437 0.59283,-2.368739 0.59281,-2.368739 -1.61244,-4.041415 -1.61244,-4.041415 -2.69479,1.023747 c -1.48213,0.563057 -3.69569,1.963967 -4.91903,3.113135 l -2.22424,2.089387 -1.59864,-0.615213 -1.59865,-0.615212 -4.01564,1.61133 -4.01564,1.611341 0,1.461708 c 0,0.803936 0.6944,2.808364 1.54311,4.454282 l 1.54311,2.992573 1.10336,0 1.10335,0 -0.51118,2.681767 -0.5112,2.681767 1.41828,3.404121 1.41828,3.404121 z M 219.44593,-60.80491 c 0.29272,0 1.82866,-1.391822 3.41321,-3.092929 1.58455,-1.701118 2.91044,-3.412774 2.94644,-3.80368 0.036,-0.390917 0.31825,-1.509524 0.62723,-2.485802 l 0.56178,-1.77505 0.96553,0 0.96555,0 2.88148,-4.556616 2.88147,-4.556616 0.64818,-4.065059 0.64818,-4.065059 0.75321,0 c 0.41427,0 1.31917,-1.818575 2.01089,-4.041283 0.69172,-2.222708 1.25769,-5.1401 1.25769,-6.483084 l 0,-2.441802 2.39101,-0.60182 2.39102,-0.60182 10.14052,-13.9862 c 5.57728,-7.6924 11.80985,-15.98997 13.85015,-18.43903 l 3.70963,-4.45284 0.58988,-2.95778 0.58987,-2.95779 1.89351,0.49658 1.89353,0.49659 0.9552,-1.78992 0.9552,-1.78992 6.56469,-4.28929 6.56469,-4.2893 3.59252,-4.39673 c 1.97588,-2.4182 3.59252,-4.91993 3.59252,-5.55941 l 0,-1.16266 3.03427,-2.56047 3.03427,-2.56047 0,-1.30711 c 0,-0.71891 -0.62028,-1.82336 -1.37838,-2.45434 l -1.37839,-1.14722 -5.82904,-1.08064 -5.82903,-1.08064 -1.08625,1.08935 -1.08625,1.08936 -2.86447,0 -2.86447,0 -3.68237,1.54298 c -2.02529,0.84865 -5.6518,3.16142 -8.05889,5.13949 l -4.37653,3.59649 0,1.2438 0,1.24382 -3.28353,0.97048 -3.28354,0.9705 -6.89681,9.07998 -6.89681,9.07999 -0.56602,2.83821 -0.56602,2.83822 -1.92816,0 -1.92817,0 -0.66614,1.74089 c -0.36638,0.9575 -3.60623,5.4078 -7.19966,9.88957 -3.59344,4.48177 -8.09365,10.57837 -10.00046,13.54801 -1.90681,2.96964 -3.96902,6.84939 -4.58269,8.62168 -0.61367,1.77228 -2.35557,4.94242 -3.87089,7.044746 l -2.75513,3.822404 -1.2371,5.171574 -1.23711,5.171575 0.57269,5.564662 0.57268,5.564673 1.57945,1.75025 1.57944,1.750251 0,2.06555 0,2.065551 2.09625,2.672577 c 1.15294,1.469914 2.33575,2.672577 2.62848,2.672577 z m 282.24721,-20.330812 2.25644,0.04453 0.63629,-2.542451 0.6363,-2.542461 -0.67725,-3.620322 -0.67724,-3.620323 1.08671,-1.313131 1.08669,-1.313132 0.23779,-3.935125 0.2378,-3.935133 -6.06854,0 c -3.33769,0 -6.52367,-0.28866 -7.07996,-0.64146 -0.55628,-0.35279 -2.41811,-0.94364 -4.13738,-1.31299 l -3.12597,-0.67153 -1.03312,1.31299 c -0.56821,0.72214 -1.33073,2.56268 -1.69449,4.0901 l -0.66138,2.777112 1.25795,2.020069 1.25796,2.020069 -1.74746,2.966677 -1.74747,2.966678 0,2.761918 0,2.761918 5.1237,-0.493728 5.12368,-0.493728 3.72627,1.334463 c 2.04943,0.733968 4.74165,1.354516 5.98268,1.379002 z m 64.25825,-6.263464 c 1.80043,-0.597817 4.63891,-1.067566 6.30776,-1.043882 1.66885,0.02374 4.94571,-0.162746 7.2819,-0.414286 l 4.24764,-0.457355 0.62708,-1.981413 0.62709,-1.981403 -1.55571,-3.127406 -1.55571,-3.127406 0.59053,-4.320683 0.59053,-4.32068 -1.07421,-2.0129 -1.07419,-2.01289 -3.34105,0.46685 c -1.83758,0.25678 -3.90499,0.9177 -4.59425,1.46871 l -1.25319,1.00185 -3.42626,-0.64461 -3.42626,-0.6446 -2.65336,1.01169 -2.65336,1.01169 0,3.24176 0,3.24176 1.637,1.81404 1.63701,1.814054 -0.78144,2.830242 c -0.4298,1.556628 -0.66553,3.971336 -0.52386,5.366019 0.14168,1.394682 0.44552,2.844493 0.67522,3.221798 l 0.41761,0.686001 z m 183.27985,-17.021254 1.32525,0 4.91365,-4.41679 c 2.70251,-2.42924 6.39285,-5.17961 8.20077,-6.11194 l 3.28713,-1.69514 0,-0.98827 c 0,-0.54355 -0.91028,-1.90115 -2.02285,-3.0169 l -2.02285,-2.02863 -1.51713,0 -1.51713,0 0,-2.72659 0,-2.7266 -2.2757,-3.35236 -2.27571,-3.35236 -1.1595,-0.007 -1.15951,-0.007 -3.10814,3.55011 -3.10814,3.5501 -1.61552,0 -1.61551,0 -3.4725,2.65617 c -1.90987,1.4609 -3.4725,3.10409 -3.4725,3.65154 0,0.54744 1.59299,2.5929 3.53998,4.54545 1.94699,1.95256 3.53998,4.02113 3.53998,4.59685 0,0.5757 0.9474,2.58405 2.10534,4.46298 l 2.10534,3.41624 1.32525,0 z m -103.96812,-5.04073 4.79817,-1.82656 0.37584,-1.13076 0.37586,-1.13078 2.47675,0 c 1.36222,0 4.11192,-0.68517 6.11046,-1.5226 l 3.6337,-1.5226 -0.63496,-3.2954 -0.63496,-3.29539 -1.85124,-1.54717 -1.85123,-1.54717 -0.0454,-3.01724 c -0.025,-1.65949 -0.54473,-4.27247 -1.15496,-5.80662 l -1.10951,-2.78937 -0.89532,0 c -0.49242,0 -2.57203,1.14111 -4.62135,2.53579 l -3.72604,2.53579 -2.30346,0 c -1.26691,0 -4.43268,0.72757 -7.03505,1.61682 l -4.7316,1.61681 0,1.99997 c 0,1.09998 0.52158,2.99695 1.15907,4.21549 0.6375,1.21854 1.72983,2.555 2.42741,2.9699 l 1.26835,0.75437 0,3.57971 0,3.5797 1.58565,2.42694 1.58566,2.42693 4.79817,-1.82656 z m -336.53513,-6.11673 1.1115,0 3.01199,-4.763 3.01199,-4.763 0,-1.67961 0,-1.67961 2.97346,-3.12033 2.97345,-3.12033 1.57795,-5.32872 1.57795,-5.32872 0,-5.27044 0,-5.27043 -1.39525,-1.16126 -1.39524,-1.16126 -0.61289,-2.76663 -0.61288,-2.76661 -2.64994,-2.97028 -2.64992,-2.97029 -1.53037,0.9681 c -0.8417,0.53244 -2.50048,2.74892 -3.68618,4.9255 -1.18569,2.17657 -3.34841,5.0082 -4.80603,6.29249 l -2.65023,2.33508 -1.0063,2.8099 c -0.55347,1.54545 -1.52279,4.98456 -2.15404,7.64246 -0.63125,2.6579 -1.14772,5.63065 -1.14772,6.6061 l 0,1.77355 -2.12751,1.00126 -2.12751,1.00126 -1.64398,2.78482 -1.64399,2.78482 2.40891,1.77959 c 1.3249,0.97878 3.591,2.4753 5.03578,3.32559 1.44476,0.8503 4.07104,3.01839 5.83618,4.81799 1.76512,1.79961 3.70949,3.27201 4.32082,3.27201 z m 196.11267,-10.25429 c 6.41189,0.7731 12.36355,-0.69108 18.58967,-1.96351 l 10.15145,-2.07465 10.16464,-4.04073 c 5.59056,-2.22241 13.61025,-5.92923 17.82156,-8.23738 4.2113,-2.30816 12.27318,-7.32661 17.9153,-11.15213 l 10.25839,-6.95548 10.98149,-9.49069 c 6.03981,-5.21988 13.75628,-12.39796 17.14769,-15.95129 3.39142,-3.55334 9.54983,-10.34036 13.68537,-15.08229 4.13553,-4.74192 12.09662,-14.78363 17.69131,-22.31492 5.59467,-7.53128 13.38613,-18.94232 17.31432,-25.35786 8.96585,-10.99091 14.46969,-24.90906 19.82182,-35.80141 3.62602,-7.36607 8.40795,-17.72905 10.6265,-23.02885 2.21856,-5.29979 6.10849,-15.41511 8.64431,-22.47849 2.53581,-7.06338 6.02745,-18.2462 7.75919,-24.85071 1.73175,-6.60451 4.0513,-15.43152 5.15457,-19.61556 1.10327,-4.18405 2.90546,-12.4 4.00486,-18.25767 1.09941,-5.85767 3.10763,-17.72515 4.46273,-26.37218 1.3551,-8.64703 2.73069,-19.82985 3.05688,-24.85071 0.32617,-5.02086 0.54418,-19.39877 0.48446,-31.95091 l -0.1086,-22.82208 -1.01757,-12.17178 c -0.55966,-6.69448 -1.93857,-18.33374 -3.06426,-25.86502 -1.12567,-7.53129 -3.14243,-18.81367 -4.48167,-25.07198 -1.33924,-6.2583 -3.57129,-15.38713 -4.96009,-20.28629 -1.38882,-4.89916 -3.63477,-12.33088 -4.99102,-16.51493 -1.35625,-4.18405 -4.09986,-11.94355 -6.09693,-17.24335 -1.99705,-5.29979 -7.02437,-16.48261 -11.17179,-24.85071 l -7.54077,-15.21472 -6.36581,-9.5589 c -3.5012,-5.25739 -7.08948,-10.62335 -7.97396,-11.92434 -0.88449,-1.30099 -4.66452,-5.95541 -8.40007,-10.34315 -3.73555,-4.38773 -9.61141,-10.44562 -13.05747,-13.46195 -3.44607,-3.01632 -8.08613,-6.88865 -10.31126,-8.60516 -2.22513,-1.71651 -7.6773,-5.24114 -12.11593,-7.83252 -6.646,-3.80216 -12.6743,-6.52047 -19.49103,-7.74794 l -7.83853,-1.41145 c -6.30138,-0.49711 -10.79223,1.20618 -16.37997,3.93868 -11.51543,5.54488 -15.31933,16.42208 -18.9593,27.21809 -15.83154,56.30089 -17.20086,113.22966 -22.36749,171.58955 -5.47265,59.39313 -16.10439,119.74601 -30.22205,174.60853 -9.51435,39.36821 -20.62748,73.59738 -31.61128,108.89242 -3.56375,11.4364 -8.47292,27.18364 -10.90928,34.99386 -2.43634,7.81022 -5.13935,16.98215 -6.00666,20.38207 -0.86733,3.39992 -2.26547,9.7901 -3.10699,14.20041 l -1.53005,8.01874 0.005,6.59304 c -0.64777,14.49157 4.93848,19.19577 17.75396,24.62248 l 9.04247,3.82903 4.5514,0.87783 c 2.50327,0.48281 8.3486,0.92784 12.98962,0.98896 z m -72.52438,-38.79347 3.84183,-5.93938 3.07239,-7.98979 c 1.68983,-4.39439 4.18154,-12.44804 5.53715,-17.89702 1.35561,-5.44897 3.39129,-15.38452 4.52374,-22.07899 1.13245,-6.69448 2.76143,-17.8773 3.61995,-24.85071 5.75254,-43.94093 8.42798,-80.88237 13.20428,-124.25355 3.08949,-60.88462 5.15921,-67.16219 36.36045,-173.95497 11.1542,-50.50076 35.01491,-101.86546 37.28713,-154.68298 l 0.28168,-7.10021 -1.43932,-7.60736 c -5.78397,-28.80092 -19.81517,-36.59335 -48.23674,-36.59335 -6.33044,0 -12.56914,0.22284 -13.86381,0.49519 -1.29465,0.27237 -5.53034,1.25033 -9.41266,2.17325 -3.88231,0.92293 -10.25427,2.82279 -14.15992,4.2219 -3.90564,1.39913 -11.425,4.76208 -16.70968,7.47324 -5.28469,2.71115 -11.02258,5.9692 -12.75089,7.24011 -1.7283,1.2709 -6.59683,4.93527 -10.81896,8.14304 -14.12479,10.32756 -28.2373,21.37924 -40.33008,34.2332 -10.87755,12.69621 -23.45549,26.75175 -32.30299,39.55819 -3.64372,5.2998 -7.49732,11.23354 -8.56356,13.18609 -1.06625,1.95256 -2.22504,3.77832 -2.57511,4.05726 -0.35006,0.27894 -2.78179,4.05806 -5.40385,8.39804 -2.62205,4.33999 -4.85319,8.47734 -4.95809,9.19411 -0.1049,0.71677 -1.08672,2.45789 -2.18182,3.86916 -1.09511,1.41126 -3.68213,6.17453 -5.74894,10.58503 -2.06681,4.4105 -4.85805,10.75774 -6.20274,14.10498 -1.3447,3.34724 -4.36703,10.6503 -6.71629,16.22903 -2.34926,5.57873 -6.47293,16.37143 -9.16371,23.98377 -2.69077,7.61234 -6.72813,20.62092 -8.97191,28.90797 -2.24379,8.28704 -5.41408,21.91397 -7.0451,30.28207 -1.63102,8.36809 -4.03124,22.746 -5.33381,31.95091 l -2.36832,16.73619 0,34.99386 0,34.99385 1.92274,13.18609 c 1.0575,7.25235 1.88942,13.87076 1.84871,14.70757 -0.0408,0.83681 1.00422,6.54233 2.32207,12.67893 1.31786,6.1366 2.63569,12.53472 2.92853,14.21805 0.29283,1.68331 2.33433,9.44282 4.53665,17.24334 2.20233,7.80052 5.4314,18.228 7.17572,23.17216 1.74433,4.94416 4.75633,12.93189 6.69335,17.7505 1.937,4.81863 6.39116,14.27411 9.89809,21.01219 3.50695,6.73809 8.83162,16.09515 11.8326,20.79345 3.00098,4.69832 8.95182,12.94766 13.22409,18.33188 l 7.76775,9.7895 8.92175,7.85559 c 4.90695,4.32058 11.19744,9.32404 13.97885,11.11881 2.78141,1.79476 7.56038,4.54563 10.61994,6.11304 3.05955,1.56742 9.43152,4.13254 14.15992,5.70029 19.99465,6.76167 38.0359,2.29728 49.69894,-15.73352 z m 284.07743,13.54674 c 0.57639,0 2.81372,-1.17184 4.97183,-2.60411 l 3.92387,-2.60411 0.51116,-1.9603 0.51118,-1.96031 2.37039,-0.0365 2.37039,-0.0365 2.88695,-2.36822 2.88695,-2.36823 -1.11057,-2.08105 c -0.61081,-1.14457 -2.15484,-2.91521 -3.43119,-3.93476 l -2.32062,-1.85371 -1.26073,-3.04295 c -0.69342,-1.67362 -2.15735,-4.18404 -3.2532,-5.57873 l -1.99244,-2.53578 -3.31867,3.55162 -3.31867,3.55162 -4.00956,1.83716 c -2.20526,1.01043 -5.25724,2.8495 -6.78219,4.08681 l -2.77263,2.24966 2.55624,3.7726 2.55624,3.77261 1.48067,0 1.48067,0 0.004,1.77505 c 0.002,0.97627 0.90567,3.25848 2.00798,5.07157 l 2.00419,3.29652 1.04798,0 z m -37.89993,-36.94634 c 5.54345,-3.8367 14.63039,-10.71939 20.19322,-15.29485 5.56282,-4.57546 15.37813,-13.52119 21.81178,-19.8794 l 11.69754,-11.56037 8.81934,-11.15746 c 4.85063,-6.1366 12.71387,-17.0376 17.47386,-24.22444 l 8.65455,-13.06698 6.9409,-13.3052 c 3.81749,-7.31787 8.36251,-16.72851 10.10004,-20.91256 1.73753,-4.18405 4.70779,-11.85933 6.60059,-17.05617 1.89279,-5.19684 5.03567,-15.23856 6.98418,-22.31492 1.94851,-7.07637 4.43094,-17.65876 5.51651,-23.51642 1.08557,-5.85767 2.55958,-14.9865 3.27556,-20.2863 2.08456,-11.54563 1.31173,-23.31482 1.3202,-34.99385 0.37772,-11.76857 0.28952,-23.35779 -1.28779,-34.99386 -0.71841,-5.29979 -2.64598,-16.48261 -4.28351,-24.85071 l -2.97731,-15.21472 -3.45529,-11.15746 c -1.9004,-6.1366 -4.88998,-15.26544 -6.64351,-20.28629 l -3.18822,-9.12884 -8.99139,-18.25766 -8.99139,-18.25766 -5.72737,-9.1267 c -3.15007,-5.01968 -8.88245,-13.3364 -12.73865,-18.48161 -3.8562,-5.1452 -7.48987,-9.65155 -8.07482,-10.01411 l -1.06357,-0.65919 0.96144,1.89745 c 0.52879,1.04361 2.8133,7.37476 5.07667,14.06923 2.26338,6.69448 5.28329,16.05153 6.7109,20.79345 1.42762,4.74193 3.75934,13.60704 5.1816,19.70026 1.42225,6.09321 3.6669,17.50425 4.98809,25.35786 1.3212,7.85361 3.18675,22.0388 4.14568,31.52264 l 1.7435,17.24335 -0.57838,30.9366 -0.57838,30.9366 -2.59372,19.77913 c -1.42655,10.87853 -3.73016,25.48466 -5.11915,32.45807 -1.38897,6.97342 -3.16316,15.41759 -3.94262,18.76482 -0.77947,3.34724 -2.59103,10.49252 -4.02568,15.87839 -1.43465,5.38588 -4.69267,16.04869 -7.24004,23.69513 -2.54737,7.64645 -6.70543,19.21528 -9.24012,25.70852 -2.5347,6.49323 -8.62544,20.02183 -13.53496,30.06354 -4.90954,10.04172 -10.58893,21.22454 -12.62088,24.85071 -2.03195,3.62618 -5.33227,9.3317 -7.33406,12.67894 -2.00178,3.34724 -6.36574,10.19386 -9.69769,15.21472 -3.33195,5.02085 -9.50615,13.67585 -13.72046,19.23333 -4.21431,5.55747 -8.32923,11.02392 -9.14427,12.14766 l -1.48189,2.04315 10.07898,-6.97582 z M 185.2382,-318.137 l -1.16576,-7.91119 -1.83387,-4.31084 c -1.00863,-2.37096 -1.58995,-4.31083 -1.29185,-4.31083 0.29811,0 -0.10973,-0.65362 -0.90633,-1.45248 l -1.44834,-1.45248 -1.57715,0.23214 -1.57716,0.23213 -3.9301,4.06128 c -2.16156,2.2337 -5.51252,5.2717 -7.44657,6.75108 -1.93405,1.4794 -5.54986,4.58782 -8.03512,6.90761 -2.48527,2.31978 -6.11167,5.42235 -8.05866,6.89461 -1.94699,1.47225 -3.99512,3.21325 -4.5514,3.86889 -0.55628,0.65564 -3.05955,2.86123 -5.56283,4.90131 -2.50327,2.04007 -7.4558,6.29628 -11.00563,9.45822 -9.54372,6.87414 -16.85781,14.00582 -25.60189,21.97804 -2.45556,2.23149 -5.305172,4.53491 -6.332474,5.11871 l -1.867823,1.06144 4.323231,3.43386 4.323226,3.43385 c 43.33812,19.59275 88.03386,-21.27368 83.5465,-58.89535 z m 722.60631,62.17225 c 5.04622,-0.94662 9.10917,-3.18413 13.40135,-5.79291 3.03434,-1.84425 5.48979,-3.59909 5.45656,-3.89962 -0.0333,-0.30053 -9.24981,-8.37357 -20.48131,-17.94009 -11.23149,-9.56652 -27.43414,-23.48799 -36.00589,-30.9366 -8.57175,-7.44861 -18.41883,-15.93034 -21.88239,-18.84829 l -6.29739,-5.30536 -2.21512,5.16393 c -14.29153,42.56082 19.96912,92.4289 68.02419,77.55894 z m -652.95514,-18.23293 c 0.2093,-0.2099 -1.00134,-5.87095 -2.69032,-12.58011 -1.68897,-6.70916 -4.20814,-18.74611 -5.59816,-26.74877 -1.39001,-8.00267 -3.25073,-20.48405 -4.13494,-27.7364 l -1.60764,-13.18609 -0.56345,-26.96793 -0.56345,-26.96794 1.20754,-16.64759 c 0.66414,-9.15618 2.11398,-23.19967 3.22184,-31.20775 1.10785,-8.00808 3.094,-19.87556 4.41366,-26.37218 1.31964,-6.49662 3.82644,-17.51755 5.57065,-24.49097 1.74422,-6.97341 5.01833,-18.61267 7.27581,-25.86502 2.25749,-7.25235 6.72668,-19.8045 9.93155,-27.89366 3.20486,-8.08915 8.64323,-20.79187 12.08526,-28.22825 3.44202,-7.43638 9.01445,-18.6192 12.38318,-24.85071 3.36872,-6.23151 9.09475,-16.12265 12.7245,-21.98032 3.62974,-5.85767 10.51028,-16.12624 15.29007,-22.81904 4.77979,-6.6928 12.06608,-16.27808 16.19175,-21.30061 4.12568,-5.02253 8.22778,-9.99044 9.11579,-11.0398 l 1.61455,-1.90792 -6.06854,3.83676 c -3.33769,2.11021 -11.07508,7.60528 -17.19418,12.21126 -6.11911,4.60597 -15.67706,12.47063 -21.23988,17.47701 -5.56283,5.00638 -13.7918,13.15025 -18.28662,18.09748 -4.49481,4.94723 -11.28659,12.86971 -15.09283,17.60553 -3.80625,4.73581 -10.99697,14.77753 -15.97938,22.31492 l -9.05895,13.70436 -8.36464,17.24335 c -4.60056,9.48384 -10.01449,21.49022 -12.03098,26.68084 -2.01649,5.19063 -5.42836,15.48043 -7.58194,22.86625 -2.15357,7.3858 -4.88497,18.2313 -6.06975,24.10109 -1.18479,5.86979 -2.83454,15.66341 -3.66611,21.7636 l -1.51194,11.09126 -0.6194,18.25766 -0.61938,18.25766 1.16285,14.20041 c 0.63956,7.81022 2.10474,19.90593 3.25594,26.87934 1.15121,6.97341 3.60805,18.62722 5.45965,25.89735 l 3.36655,13.21841 4.73296,13.15377 4.73296,13.15377 6.00808,12.67893 c 3.30445,6.97341 8.80005,17.58455 12.21244,23.58031 3.41239,5.99577 6.37559,10.72964 6.5849,10.51974 z M 83.949749,-287.65496 c 3.223403,-2.98497 6.156575,-5.42741 6.518158,-5.42763 0.361584,-2.1e-4 2.409715,-1.58959 4.551403,-3.53195 5.37806,-5.45233 12.24233,-10.75524 17.08708,-15.23287 11.86397,-9.03272 23.10716,-20.04004 33.43361,-28.54572 5.34038,-4.3835 11.53151,-9.71117 13.75806,-11.83928 l 4.04827,-3.86928 -1.87383,-1.46599 c -42.16496,-30.59877 -114.491406,22.33451 -86.360527,67.98146 1.654521,3.47028 1.079388,3.80256 2.977043,7.35851 z m 857.930831,3.70082 0.81592,0 2.21265,-5.15813 c 7.46605,-15.98581 5.07432,-33.54918 -2.50003,-48.67282 -16.23631,-33.06283 -62.18201,-30.39363 -83.79869,-19.70686 l -0.33254,1.07558 -0.33253,1.07558 11.85306,10.08188 c 6.51919,5.54503 17.11036,14.57287 23.53595,20.06185 6.42558,5.489 13.04693,11.19452 14.71411,12.67894 1.66717,1.48443 9.77785,8.51859 18.02372,15.63147 8.24585,7.11288 15.35963,12.93251 15.80838,12.93251 z M 840.89463,-467.54509 c 0.98364,0 3.06043,-0.485 4.6151,-1.07778 1.55467,-0.59277 3.1634,-1.61976 3.57497,-2.2822 l 0.74828,-1.20444 1.94287,1.20706 1.94286,1.20708 3.71309,-1.14284 3.71307,-1.14284 -0.64596,-2.60001 c -0.35529,-1.43001 -1.33459,-4.06052 -2.17622,-5.84556 l -1.53025,-3.24553 0.65835,-1.06829 0.65835,-1.06827 -0.65698,-4.39364 c -0.36134,-2.41649 -1.04349,-5.02078 -1.51587,-5.7873 l -0.85889,-1.39368 -3.85563,0.24292 -3.85562,0.24291 -1.05142,1.39203 -1.0514,1.39204 -5.52285,-0.15551 -5.52283,-0.15549 0.2013,4.40997 0.20131,4.40997 1.56868,2.40096 1.56869,2.40097 0,5.95252 0,5.95253 0.67429,0.6762 c 0.37084,0.37192 1.47907,0.67622 2.46271,0.67622 z m -662.96433,-5.44195 1.13745,-1.1511 0.56594,-3.7851 0.56594,-3.78509 -0.94482,-0.5856 c -0.51966,-0.32209 -0.94483,-1.01512 -0.94483,-1.54006 l 0,-0.95445 1.51713,0 1.51713,0 0.0821,-1.2679 c 0.0452,-0.69734 0.20078,-2.63722 0.34575,-4.31084 l 0.26356,-3.04294 -1.51391,-1.77505 -1.51393,-1.77505 -4.93594,0 -4.93594,0 -2.24011,-1.39475 -2.24012,-1.39476 -9.83834,-2.22301 -9.83835,-2.22302 -1.89049,0.32119 -1.8905,0.32118 -1.41966,-1.10025 -1.41965,-1.10024 -12.45839,-2.71536 -12.45837,-2.71535 -1.65933,0.93126 -1.65934,0.93126 -1.07144,-1.46947 -1.07144,-1.46947 -20.716313,-4.54862 -20.716359,-4.54861 -4.045691,-0.0902 -4.045691,-0.0902 -0.509044,-0.80547 c -0.279975,-0.44301 -3.352142,-1.39438 -6.82704,-2.11416 l -6.317995,-1.3087 -1.198908,1.20234 -1.198907,1.20234 -0.119751,5.34005 -0.119749,5.34006 -1.77705,3.36517 -1.77705,3.36518 0.314231,2.18588 0.31423,2.18588 11.523537,2.78605 11.523539,2.78605 1.527402,-0.85723 1.527402,-0.85722 3.131825,1.77917 3.131824,1.77916 12.642785,2.77129 12.642785,2.77129 6.068538,0.14145 6.06854,0.14143 1.04063,1.32658 1.04064,1.32657 14.1307,3.02245 14.13071,3.02246 3.17397,-0.25656 3.17398,-0.25655 1.48159,1.23312 1.48159,1.23312 14.05576,2.92572 14.05575,2.92572 1.13746,-1.15112 z m 721.82406,-9.77278 c 0.70004,0 2.39815,-0.79877 3.77356,-1.77505 l 2.50075,-1.77505 6.26883,0 6.26883,0 1.29818,-1.29989 1.29817,-1.29989 -2.27715,-4.30476 -2.27716,-4.30475 0.55455,-3.01703 0.55455,-3.01703 -0.86002,-3.04294 -0.86003,-3.04294 -1.65721,-0.32022 -1.65722,-0.32022 -3.32717,1.50547 -3.32715,1.50549 -5.81451,0.41956 c -3.19799,0.23076 -6.10426,0.71013 -6.45838,1.06528 l -0.64387,0.64571 2.23854,6.98178 c 1.2312,3.83997 2.10875,7.61987 1.95011,8.39976 -0.15865,0.7799 0.0422,2.67321 0.44627,4.20736 l 0.7347,2.78936 z m 58.26138,-9.12883 2.68538,0 2.04567,-1.43695 2.04568,-1.43694 4.80129,0 4.80127,0 1.46948,-1.22304 c 0.80821,-0.67267 1.46946,-1.66723 1.46946,-2.21015 0,-0.54292 -0.94856,-2.32305 -2.1079,-3.95586 l -2.10791,-2.96875 0.67968,-4.03446 0.67967,-4.03446 -0.68351,-4.05725 -0.68352,-4.05726 -4.39026,0 -4.39025,0 -1.33652,1.29204 -1.33653,1.29205 -4.5514,-0.002 c -2.50327,-10e-4 -5.3479,0.31609 -6.32139,0.70475 l -1.76999,0.70667 0,3.01491 0,3.01492 1.01142,0.62688 1.01142,0.62688 0,2.0006 0,2.0006 1.53663,0.59135 1.53662,0.59135 -0.65461,4.94882 -0.65462,4.94882 1.26468,1.5282 1.26468,1.5282 2.68538,0 z m -774.74421,-11.49129 1.42159,-0.17333 0.4392,-2.02863 c 0.24155,-1.11574 0.56447,-3.85439 0.71757,-6.08588 0.15311,-2.2315 0.6258,-4.88139 1.05041,-5.88867 l 0.77203,-1.8314 -0.63955,-4.67939 -0.63955,-4.67938 -2.4356,-5.33527 -2.43561,-5.33525 -3.07292,-1.59362 c -1.69012,-0.87649 -3.76776,-1.59362 -4.61699,-1.59362 l -1.54403,0 -1.69066,-2.58763 -1.69064,-2.58763 -3.13693,-1.62753 -3.13693,-1.62751 -10.11423,-1.27486 -10.11422,-1.27485 -1.87168,2.17821 -1.87168,2.17822 -1.89937,-2.35233 -1.89937,-2.35233 -2.84404,0.62644 c -1.56423,0.34454 -4.28651,1.50616 -6.04952,2.58139 l -3.2055,1.95494 -2.11796,4.16341 -2.11796,4.16342 -1.20995,-0.40104 -1.20997,-0.40105 -0.55117,-4.7276 -0.55117,-4.7276 -3.35588,-3.47228 -3.35587,-3.47227 -6.05185,-2.72368 -6.051845,-2.72368 -3.189602,0.49327 -3.189601,0.49327 -1.827237,-1.61597 -1.827237,-1.61598 -6.667006,-0.42574 -6.667005,-0.42573 -5.412821,1.2148 -5.41282,1.21479 0,2.46691 0,2.4669 -3.212189,-0.25743 -3.212189,-0.25744 -2.284905,3.34871 -2.284905,3.3487 -2.669718,8.03935 -2.669718,8.03936 0.648552,2.04925 0.648553,2.04925 2.467793,0.62115 2.467794,0.62115 3.546305,-0.66719 3.546306,-0.6672 2.234919,1.56987 2.23492,1.56988 3.340218,0 3.340217,0 0.620554,-3.11164 0.620553,-3.11164 2.200364,-1.44585 c 1.2102,-0.79522 5.115127,-2.40546 8.677613,-3.57831 l 6.47725,-2.13246 0.379646,1.1422 0.379645,1.14219 4.94434,2.51265 4.944339,2.51265 1.665637,2.54936 1.66564,2.54935 -0.54177,4.05075 -0.54177,4.05075 1.8621,0.99942 1.8621,0.99941 4.41561,0 4.41561,0 0.96085,0.87417 c 0.52847,0.48079 2.8733,1.33956 5.21073,1.90839 l 4.24988,1.03422 0.55438,-0.55597 c 0.30491,-0.30578 0.55438,-1.3769 0.55438,-2.38025 l 0,-1.82429 3.08018,-3.51816 3.08018,-3.51816 5.76977,-0.70154 c 3.17338,-0.38583 6.52077,-1.0924 7.43866,-1.57013 l 1.66889,-0.86859 0.5467,1.42877 0.5467,1.42876 4.35866,1.96498 4.35866,1.96498 2.52261,2.74894 2.5226,2.74892 0.51166,5.75695 0.51166,5.75695 6.3214,-0.0981 6.32139,-0.0981 0,1.337 0,1.33699 3.28712,0.96307 c 1.80792,0.52968 3.92684,0.88507 4.7087,0.78972 z m 651.76808,-0.68048 2.26793,0 2.2585,-1.58645 2.25851,-1.58644 1.94181,0.61806 1.94181,0.61807 8.92038,-1.6382 c 4.9062,-0.901 16.88532,-3.22771 26.62026,-5.17044 l 17.6999,-3.53225 2.37097,-1.55452 2.37096,-1.55452 2.50393,0.63024 2.50394,0.63025 5.74503,-0.99848 c 3.15978,-0.54916 13.71,-2.467 23.44495,-4.26186 l 17.69989,-3.26338 0.65504,-0.99227 0.65504,-0.99227 2.06756,0.54223 2.06756,0.54222 4.61022,-0.98607 4.61022,-0.98608 0,-3.31075 0,-3.31075 -1.95988,-1.77874 -1.95988,-1.77873 0.87078,-2.29689 0.87079,-2.29687 -0.56453,-4.22084 c -0.31048,-2.32146 -0.84446,-4.3798 -1.1866,-4.5741 -0.34215,-0.19429 -5.15014,0.2802 -10.68443,1.05445 l -10.06234,1.4077 -2.3543,1.54701 -2.3543,1.54701 -3.26041,-0.5854 -3.26041,-0.58541 -5.56283,1.58337 c -3.05955,0.87086 -8.64365,2.01733 -12.40909,2.54771 -3.76546,0.53037 -7.71245,1.4292 -8.77109,1.99739 -1.05865,0.56819 -2.60857,1.71878 -3.44428,2.55689 l -1.51947,1.52382 -2.30765,-0.8561 -2.30765,-0.85609 -3.58456,0.94496 c -1.97151,0.51973 -5.63269,1.31714 -8.13597,1.77202 -2.50327,0.45489 -10.41334,2.00751 -17.57795,3.45029 l -13.02655,2.62323 -1.38873,1.15584 -1.38873,1.15584 -3.01504,-0.60473 -3.01502,-0.60472 -9.05684,1.90119 c -4.98127,1.04565 -9.48639,2.16742 -10.01138,2.49282 l -0.95454,0.59162 0.98646,4.83225 0.98645,4.83225 1.46878,1.16006 1.46878,1.16005 -0.63798,2.54915 -0.63796,2.54915 1.133,2.1231 1.13302,2.12311 z m -8.0213,-45.64416 c 0.27814,0 0.787,-0.45645 1.1308,-1.01432 0.34381,-0.55787 0.39752,-1.01431 0.11938,-1.01431 -0.27814,0 -0.787,0.45644 -1.1308,1.01431 -0.3438,0.55787 -0.39752,1.01432 -0.11938,1.01432 z m 4.16507,-2.44388 c 1.11257,-0.43729 2.47799,-0.89148 3.03427,-1.00933 0.55628,-0.11783 3.05955,-1.32373 5.56283,-2.67977 2.50327,-1.35604 5.46168,-2.83845 6.57424,-3.29426 1.11257,-0.45579 4.98126,-2.81216 8.5971,-5.23638 l 6.57425,-4.40766 3.53998,-0.63555 3.53998,-0.63555 14.91848,-7.29872 14.91849,-7.29873 0,-1.18203 0,-1.18202 3.30214,-0.62126 3.30215,-0.62126 14.24222,-6.97533 14.24223,-6.97533 0.62296,-1.62802 0.62294,-1.62803 1.45736,0.56084 1.45737,0.56084 4.39661,-2.22216 c 2.41813,-1.22219 4.93315,-2.65231 5.58893,-3.17804 l 1.19233,-0.95588 -2.0508,-3.48579 -2.0508,-3.48579 -1.41724,0 -1.41722,0 0,-3.94489 0,-3.94488 -1.8737,-2.32055 -1.87372,-2.32054 -8.68865,4.257 -8.68867,4.25699 -1.9313,2.46227 -1.9313,2.46227 -1.03345,-1.03639 -1.03344,-1.0364 -8.47133,4.24056 c -4.65923,2.3323 -9.38161,5.02733 -10.49418,5.98896 l -2.02284,1.74841 -4.32874,1.23643 -4.32874,1.23643 -5.78549,5.42257 c -3.18202,2.98241 -7.53608,6.92562 -9.6757,8.7627 l -3.89021,3.34014 -0.89887,2.37096 -0.89886,2.37096 -1.63331,0.62855 c -0.89832,0.3457 -2.63461,1.58922 -3.85845,2.76338 -1.22382,1.17415 -7.74375,7.06763 -14.48874,13.09664 -6.74499,6.029 -12.86668,11.70587 -13.60378,12.61526 l -1.34017,1.65345 z m -10.73743,-5.10255 2.71758,-1.40933 1.37082,-2.56872 1.37082,-2.56873 2.63911,-0.30717 2.6391,-0.30719 -0.1113,-1.01431 -0.11132,-1.01432 11.85802,-10.6503 11.85801,-10.6503 1.12725,-2.28221 1.12725,-2.28221 1.53882,0 1.53882,0 0,-1.01431 0,-1.01432 1.43833,0 1.43831,0 3.46296,-4.05726 c 1.90463,-2.23149 3.79279,-4.05726 4.19591,-4.05726 0.40312,0 2.99095,-1.90941 5.75074,-4.24316 l 5.01777,-4.24315 2.07327,-3.36421 2.07326,-3.3642 1.33834,0 1.33832,0 9.85201,-8.79664 9.852,-8.79663 1.53915,-2.68949 1.53915,-2.68949 3.87084,-2.23414 3.87084,-2.23414 1.69955,-2.60127 1.69956,-2.60127 2.35179,-0.89671 2.35181,-0.89671 0,-2.0459 0,-2.04591 -3.03427,-2.71128 -3.03427,-2.71128 0,-2.82754 c 0,-1.55516 -0.5282,-3.99015 -1.17378,-5.41108 l -1.17376,-2.58351 -1.71811,0 -1.71809,0 -4.73774,4.18225 -4.73774,4.18225 0.51976,0.52125 0.51977,0.52125 -2.06183,2.90386 -2.06184,2.90386 -1.99735,0 -1.99737,0 -8.71398,8.62168 c -4.79268,4.74192 -8.98954,8.62167 -9.32636,8.62167 -0.33681,0 -1.68562,1.74151 -2.99736,3.87001 l -2.38498,3.87 -2.15233,1.11249 c -1.18379,0.61187 -3.51843,1.76654 -5.18809,2.56595 l -3.03576,1.45347 -9.427,9.16152 -9.42699,9.16152 0.32568,1.89945 0.32567,1.89945 -2.49022,-0.27974 -2.49022,-0.27974 -5.09545,5.00818 c -2.8025,2.75449 -7.25736,7.11048 -9.89971,9.67996 l -4.80425,4.67178 0,2.01082 0,2.01082 -1.97793,0 -1.97793,0 -3.81564,2.59676 c -2.0986,1.42823 -4.09932,3.05708 -4.44604,3.61968 l -0.63039,1.0229 1.61562,4.50568 1.61561,4.50567 1.86655,0.59411 1.86654,0.59412 -0.53715,2.05993 -0.53714,2.05994 1.55569,2.38109 1.5557,2.3811 z m -620.7114,0.43998 c 0.37973,0.003 1.03464,-1.02075 1.45535,-2.27596 0.42072,-1.25522 0.87499,-2.91242 1.00949,-3.68268 0.1345,-0.77025 0.73123,-1.88853 1.32606,-2.48507 l 1.08152,-1.0846 0,-2.22441 0,-2.2244 1.52588,-0.58722 1.52588,-0.5872 1.16362,-2.56114 1.1636,-2.56113 -2.94234,-2.53768 -2.94235,-2.53766 -2.35834,-10e-4 -2.35834,-0.001 -4.21591,-3.43824 -4.21591,-3.43824 -21.48354,-10.76216 -21.48354,-10.76217 -2.5695,0 -2.56949,0 -0.63302,-1.65434 -0.63302,-1.65434 -22.22105,-10.9432 -22.221048,-10.94319 -1.379808,0.531 -1.379808,0.53099 -0.622696,-1.62736 -0.622697,-1.62736 -4.693398,-2.08205 -4.693397,-2.08205 -1.772391,2.19507 -1.772391,2.19507 0,2.85255 0,2.85255 -2.982471,2.991 -2.982472,2.991 -0.678977,2.71299 c -0.373437,1.49214 -0.51053,2.84491 -0.304652,3.00615 0.205878,0.16125 4.607014,2.69771 9.780303,5.63661 l 9.405978,5.34343 1.893754,-0.49664 1.893752,-0.49665 2.698138,2.82431 2.698141,2.8243 4.71345,1.76395 c 2.5924,0.97017 7.47644,3.29224 10.85342,5.16014 l 6.13997,3.3962 4.20326,0.37969 4.20326,0.37969 1.79384,2.07319 1.79385,2.07319 19.1186,9.73335 19.1186,9.73334 2.97453,0 2.97454,0 0.53957,2.06926 0.53959,2.06925 2.85547,1.48085 c 1.57052,0.81446 3.75586,1.48085 4.85632,1.48085 l 2.00083,0 1.56389,1.56836 c 0.86014,0.8626 2.827,2.22911 4.37079,3.0367 1.5438,0.80757 3.11759,1.47114 3.49731,1.47458 z m 14.21104,-29.47642 c 0.40784,0.0371 1.92467,-2.27396 3.37073,-5.13578 l 2.62921,-5.20333 -0.47404,-1.81787 -0.47403,-1.81789 2.8455,-2.73395 2.84548,-2.73394 1.2638,-3.0598 1.2638,-3.05979 -1.92946,-1.41489 c -1.0612,-0.77818 -3.74783,-1.96123 -5.97029,-2.62901 l -4.04083,-1.21412 -1.69129,-1.69612 -1.69128,-1.69612 -3.31618,-0.73043 -3.31617,-0.73044 -1.36248,1.86862 -1.36247,1.86862 -0.60073,3.7675 -0.60072,3.7675 -1.39218,0.53575 -1.39217,0.53575 -2.44607,5.3375 -2.44606,5.33749 0.98941,1.85402 0.98942,1.85402 1.70382,0.52391 c 0.93711,0.28815 2.53599,0.97323 3.55308,1.52241 l 1.84924,0.9985 1.32918,-1.10627 1.3292,-1.10628 3.90152,4.02346 c 2.14584,2.2129 4.23522,4.05384 4.64306,4.09098 z M 796.90258,-599.406 c 0.27423,0 1.84141,-0.69639 3.48263,-1.54752 l 2.98405,-1.54752 0.0155,0.78678 c 0.008,0.43273 0.39544,0.18588 0.85982,-0.54854 0.46439,-0.73443 1.70905,-1.49828 2.76593,-1.69745 1.05688,-0.19917 2.26295,-0.39704 2.68016,-0.43972 l 0.75858,-0.0776 0,-2.02863 0,-2.02862 2.59504,0 c 1.42728,0 3.50495,-0.48836 4.61705,-1.08524 1.11209,-0.59687 3.01148,-1.27633 4.22087,-1.5099 1.20938,-0.23358 3.43711,-1.34277 4.95052,-2.46488 1.5134,-1.1221 3.45723,-2.04019 4.31962,-2.04019 l 1.56799,0 1.73202,-2.02863 1.73201,-2.02863 1.86456,0 c 1.02551,0 2.85871,-0.51644 4.07377,-1.14765 1.21506,-0.63121 5.16762,-3.11822 8.78346,-5.52668 3.61583,-2.40846 8.73616,-6.42067 11.3785,-8.91602 l 4.80426,-4.53699 0,-1.12983 0,-1.12984 4.46615,-1.91989 4.46615,-1.91989 4.66034,-4.80874 4.66035,-4.80875 0.59167,-2.36415 0.59167,-2.36415 1.90539,0 1.9054,0 2.75276,-3.09834 2.75277,-3.09833 3.12692,-1.48808 3.12693,-1.48807 5.44736,-5.53164 5.44735,-5.53165 -0.68899,-0.69096 -0.68899,-0.69096 -4.12949,1.86746 -4.12949,1.86747 -2.03231,2.60208 -2.03232,2.60208 -2.69846,0.68264 c -1.48415,0.37545 -4.71344,1.42805 -7.1762,2.33912 -2.46275,0.91108 -8.26579,3.46963 -12.89564,5.68569 l -8.4179,4.02918 0,1.86911 0,1.86911 -4.80425,0.64854 -4.80426,0.64854 -5.05712,2.56143 c -2.78141,1.40878 -7.31346,3.87947 -10.07122,5.49043 -2.75775,1.61095 -5.58051,3.70582 -6.2728,4.65528 l -1.25869,1.72629 -1.71621,-0.66045 -1.71621,-0.66047 -12.49231,6.17256 -12.49229,6.17256 0,1.46087 0,1.46089 -1.41643,0 c -0.77904,0 -5.33044,1.80487 -10.11423,4.01082 l -8.6978,4.01082 0,1.11113 c 0,0.61111 0.66588,2.40246 1.47972,3.98078 l 1.47973,2.86966 1.55454,0.59823 1.55455,0.59824 0,2.84909 0,2.84909 1.57448,2.25431 c 0.86597,1.23988 1.79886,2.25433 2.07307,2.25433 z m -638.1947,-14.24524 1.13207,0.0448 2.66077,-6.15274 c 1.46342,-3.38402 2.66076,-6.57911 2.66076,-7.1002 0,-0.52111 0.91028,-1.86035 2.02285,-2.97609 l 2.02284,-2.02863 0,-2.56089 0,-2.56089 -2.77873,-1.0595 -2.77874,-1.0595 -2.25609,0.43251 -2.25608,0.43252 -0.61352,-1.93855 -0.61352,-1.93855 -4.55373,-2.2187 -4.55374,-2.2187 -1.45356,1.99354 -1.45354,1.99354 -0.60074,3.7675 -0.60072,3.7675 -1.35216,0.52035 -1.35215,0.52035 -2.191,4.30699 -2.19099,4.30699 2.70741,2.33547 2.70741,2.33548 3.00961,0 3.00961,0 0.59716,1.56062 0.59716,1.56062 3.66964,1.94465 c 2.01831,1.06957 4.17908,1.96483 4.80172,1.98948 z m 69.84675,-4.02699 1.19063,0.0146 3.10791,-3.7812 3.1079,-3.78121 0,-1.79752 0,-1.79753 1.20894,0 c 0.66492,0 2.48548,-1.2265 4.04569,-2.72555 l 2.83676,-2.7256 0,-1.54252 0,-1.54251 -3.74525,-3.84645 -3.74525,-3.84644 -1.31187,0 -1.31186,0 0,-1.91705 0,-1.91704 -4.5514,-6.20033 c -2.50327,-3.41017 -4.55141,-6.38999 -4.55141,-6.6218 0,-0.23182 2.04814,-2.82779 4.55141,-5.76884 l 4.5514,-5.34735 0,-1.30247 0,-1.30247 -2.98404,-1.54752 c -1.64123,-0.85113 -3.57557,-1.5554 -4.29855,-1.56504 l -1.3145,-0.0176 -2.26673,-2.3983 -2.26672,-2.3983 -2.7904,-0.54863 -2.79038,-0.54862 -2.66829,2.53836 -2.66827,2.53836 -2.76173,-3.63117 -2.76174,-3.63118 -1.79315,0 -1.79316,0 -0.57311,-2.2822 c -0.31522,-1.25522 -2.00968,-4.23948 -3.76548,-6.6317 l -3.19235,-4.3495 -4.18271,-2.1232 c -2.30048,-1.16777 -6.4783,-3.6427 -9.28404,-5.49984 l -5.10134,-3.37661 -1.97862,0.51316 -1.97861,0.51316 -1.24419,-2.83562 -1.24419,-2.83561 -11.17762,-5.46224 -11.17761,-5.46224 -0.56655,0.56817 -0.56655,0.56816 0.85128,1.41253 c 0.4682,0.7769 3.56779,4.91912 6.88797,9.20492 l 6.03668,7.79237 1.18648,0 1.18648,0 0.60871,2.43218 0.60869,2.43218 6.00326,7.96454 c 3.3018,4.3805 8.76648,10.86389 12.14374,14.40751 3.37726,3.54363 6.14047,6.91348 6.14047,7.48854 0,0.57507 2.84462,4.54459 6.32139,8.82115 3.47677,4.27657 7.91438,10.14105 9.86137,13.03219 l 3.53998,5.25662 1.71826,0.57819 1.71825,0.57818 0.69008,2.18048 c 0.37954,1.19925 4.3853,7.10309 8.90169,13.11963 l 8.2116,10.93916 1.19065,0.0146 z m 546.59745,-18.81998 2.63121,-1.34807 1.69065,-2.58763 1.69065,-2.58762 1.29731,0 c 0.71353,0 2.86066,-1.15669 4.7714,-2.57042 l 3.47408,-2.57042 0.74095,-2.00875 0.74097,-2.00875 2.71046,-1.03346 2.71045,-1.03346 4.13341,-4.02336 c 2.27336,-2.21285 4.59752,-4.02336 5.16478,-4.02336 0.56726,0 1.62754,-0.95733 2.35618,-2.12741 l 1.3248,-2.1274 0.60313,0.60487 0.60314,0.60485 4.56539,-4.30976 c 2.51096,-2.37037 6.04615,-5.79321 7.85596,-7.60629 l 3.29057,-3.29653 1.86623,0 1.86621,0 7.55736,-6.13686 c 4.15655,-3.37528 8.06267,-6.79859 8.68028,-7.60736 0.61761,-0.80878 1.60121,-1.4705 2.18579,-1.4705 0.58457,0 2.24117,-1.40435 3.68134,-3.12077 l 2.61846,-3.12076 0,-1.50351 0,-1.50351 1.01832,0.63116 1.01833,0.63116 2.93064,-2.09278 c 1.61186,-1.15101 3.41882,-2.09276 4.01548,-2.09276 l 1.08482,0 1.59369,-2.43923 1.59369,-2.43922 2.22246,-0.59782 2.22247,-0.5978 5.05711,-4.49603 5.05712,-4.49601 -1.04815,-1.7325 -1.04816,-1.7325 -0.88377,0.22761 -0.88377,0.2276 -0.89975,-1.61236 -0.89974,-1.61235 -1.2637,0 -1.26369,0 -1.22766,-3.40474 -1.22767,-3.40475 -1.92564,-1.74768 -1.92566,-1.74767 -2.35983,1.22191 c -1.29792,0.67206 -3.38391,2.15732 -4.63555,3.3006 l -2.2757,2.07869 0,1.34466 0,1.34466 -2.09106,0 -2.09106,0 -5.58732,4.56442 -5.58733,4.56442 -1.48412,0 -1.4841,0 0.52208,0.84716 0.52209,0.84717 -3.43121,1.64091 -3.43121,1.6409 -2.2785,3.09066 -2.27851,3.09066 -1.26744,0 -1.26744,0 -4.56618,4.31083 c -2.5114,2.37097 -6.97579,6.37225 -9.92086,8.89177 -2.94508,2.51951 -8.42933,6.8557 -12.18724,9.63599 l -6.83256,5.05506 -0.63094,2.36623 -0.63092,2.36625 -1.85498,-0.48648 -1.85498,-0.48647 -1.16322,1.40558 -1.1632,1.4056 -1.14969,-0.65861 -1.14967,-0.65861 0.72456,0.80473 0.72455,0.80473 -3.75882,2.78805 c -2.06736,1.53343 -5.39272,4.32547 -7.38971,6.20452 -1.99697,1.87905 -3.81753,3.94347 -4.04569,4.58759 l -0.41481,1.17113 -2.36641,0.35034 -2.36639,0.35034 -3.955,3.64788 c -2.17524,2.00632 -3.9406,4.06031 -3.92303,4.56441 0.0176,0.50411 1.06033,2.08632 2.3172,3.51605 1.25689,1.42973 3.06307,2.89884 4.01373,3.2647 l 1.7285,0.66517 0,1.618 0,1.61799 2.78141,2.85669 2.78141,2.85668 z m -667.85861,-3.52099 2.31164,0.0406 1.98691,-4.64851 c 1.09279,-2.55663 1.9869,-5.47468 1.9869,-6.48449 l 0,-1.83601 1.40593,-0.54105 1.40593,-0.54105 1.62833,-3.27341 c 0.89559,-1.80037 1.62546,-4.00206 1.62195,-4.89262 l -0.006,-1.61921 -3.10983,-1.77506 -3.10984,-1.77505 -2.32274,0 -2.32276,0 -1.31445,-1.58835 c -0.72295,-0.87359 -2.57664,-2.24292 -4.11931,-3.04295 -1.543,-0.80002 -3.492226,-1.45458 -4.331946,-1.45458 l -1.526761,0 -1.145925,4.31083 c -0.630258,2.37096 -1.445023,4.80068 -1.810589,5.39937 -0.365567,0.59869 -2.143871,3.3126 -3.95179,6.03089 l -3.287124,4.94236 0,1.71339 0,1.7134 2.719592,1.78704 2.71959,1.78704 2.900314,-0.0827 2.900313,-0.0827 0.56856,1.48588 0.568561,1.48588 2.661485,1.45024 c 1.46382,0.79763 3.70172,1.46851 4.97313,1.49085 z m 161.80046,-26.37218 1.27304,0.0406 3.02551,-2.70345 3.02551,-2.70346 0,-1.69814 0,-1.69816 2.54345,-1.16219 2.54346,-1.16218 1.12488,-2.47593 1.12489,-2.47594 -0.64204,-2.5654 -0.64204,-2.56541 -6.41062,-3.59527 c -3.52585,-1.97737 -6.93581,-3.59524 -7.57771,-3.59524 -0.64189,0 -1.96357,-0.73019 -2.93707,-1.62264 -0.97349,-0.89245 -7.91438,-4.99277 -15.4242,-9.11183 l -13.6542,-7.48921 -2.26714,-0.017 -2.26712,-0.017 -1.27286,-2.07113 -1.27284,-2.07113 -14.92378,-8.6764 -14.92377,-8.67641 -4.12813,-0.55528 -4.12812,-0.55527 -1.01154,-2.13686 -1.01154,-2.13686 -12.10514,-6.88319 -12.10514,-6.8832 -2.91131,-0.58393 -2.91132,-0.58392 -2.59561,2.60302 -2.5956,2.60302 0,2.07474 0,2.07473 -1.5314,0 -1.53138,0 -2.99036,3.29653 c -1.64471,1.81308 -3.00371,3.85938 -3.02002,4.54732 l -0.0296,1.25081 4.84983,2.46461 c 2.66739,1.35554 8.698,4.78567 13.40135,7.62252 l 8.55153,5.15789 1.76999,0.002 1.76999,0.002 0,0.8 c 0,0.44 2.58885,2.37987 5.75299,4.31083 3.16415,1.93097 9.21218,5.33661 13.44007,7.5681 4.22789,2.23149 10.17292,5.69365 13.21118,7.69369 3.03826,2.00005 8.02738,4.96692 11.08694,6.59304 3.05955,1.62614 5.79039,3.23062 6.06853,3.56551 0.27815,0.33489 1.54698,1.15895 2.81962,1.83125 l 2.31391,1.22235 1.85926,-0.59179 1.85926,-0.59181 0.49175,1.88586 0.49175,1.88584 11.01214,6.19893 c 6.05668,3.4094 11.92241,6.53414 13.03498,6.94386 1.11256,0.40971 2.25041,1.05422 2.52855,1.43222 0.27815,0.37801 1.87114,1.42003 3.53998,2.31558 1.66885,0.89557 3.60714,1.64658 4.30731,1.66892 z m 476.99309,-3.59718 1.65398,-0.63651 0,-1.34388 0,-1.34388 3.03427,-2.16677 3.03427,-2.16677 0,-2.3582 0,-2.35819 1.40403,-0.54032 c 0.77221,-0.29717 4.6409,-4.42678 8.59709,-9.17691 l 7.19307,-8.63658 0.0549,-1.83551 0.0549,-1.83549 4.74935,-3.04295 4.74933,-3.04294 0,-1.28117 0,-1.28117 2.71883,-2.26893 c 1.49536,-1.24791 6.61569,-7.01175 11.37851,-12.80852 4.76281,-5.79678 8.65967,-11.07414 8.65967,-11.72746 l 0,-1.18784 3.12359,-2.31598 3.12359,-2.31597 1.2076,-2.88024 1.20759,-2.88023 2.72938,-2.15307 c 1.50117,-1.1842 2.66586,-2.46916 2.5882,-2.85548 -0.0777,-0.38633 0.20634,-1.49857 0.63109,-2.47164 l 0.77226,-1.76922 0.79481,0.49262 0.7948,0.49262 1.58206,-2.42143 c 0.87014,-1.33179 1.87954,-3.61007 2.24313,-5.06286 l 0.66107,-2.64144 2.30367,0 2.30367,0 1.67983,-3.5501 1.67982,-3.5501 0.96398,0 0.96396,0 0,-1.44785 0,-1.44786 -2.66496,-2.10225 -2.66495,-2.10224 -1.78654,0 -1.78655,0 -2.09359,-3.55853 -2.0936,-3.55852 -2.49321,-1.13923 -2.49321,-1.13924 -1.34517,0.51767 c -0.73985,0.28471 -2.02051,1.78903 -2.84591,3.34293 -0.82541,1.5539 -3.94563,5.37483 -6.93381,8.49093 l -5.43307,5.66566 -2.15373,4.53502 -2.15371,4.53502 -2.24458,1.12224 c -1.23451,0.61723 -3.16835,2.3 -4.29742,3.73949 -1.12908,1.43948 -2.08572,3.00169 -2.12588,3.47157 -0.0402,0.46988 -1.5808,2.10863 -3.42363,3.64167 l -3.35061,2.78734 -2.94774,-0.59124 -2.94775,-0.59123 -0.96144,-2.11314 c -0.52879,-1.16222 -1.80489,-2.60692 -2.83579,-3.21042 l -1.87436,-1.09728 -1.15991,1.93962 c -0.63795,1.06679 -1.95641,2.77845 -2.92991,3.80368 -0.97349,1.02523 -1.76999,2.09228 -1.76999,2.37121 l 0,1.54658 0,1.03942 -2.42173,0.92337 -2.42173,0.92337 -1.54531,3.10651 -1.54531,3.10651 2.16925,1.52375 c 1.19308,0.83805 2.77754,1.52374 3.52101,1.52374 l 1.35178,0 -0.60843,0.98729 -0.60844,0.98729 2.06588,1.77392 c 1.13623,0.97565 2.06588,2.1648 2.06588,2.64255 0,0.47775 -2.81841,4.37017 -6.26313,8.64983 -3.44473,4.27967 -7.76856,9.49418 -9.60852,11.5878 l -3.34538,3.8066 0,2.02571 0,2.02571 -1.43893,0 -1.43892,0 -4.48525,5.32515 c -2.46687,2.92884 -5.92518,7.34674 -7.6851,9.81756 l -3.19987,4.49241 1.08322,1.08632 c 0.59578,0.59749 1.40182,1.09819 1.79122,1.11269 0.3894,0.0145 2.07342,0.92739 3.74227,2.02863 1.66884,1.10125 4.67945,3.72329 6.69025,5.82678 l 3.65599,3.8245 1.65398,-0.6365 z m -452.76,-19.69145 c 0.81952,0 2.81192,-0.94396 4.42757,-2.09769 l 2.93754,-2.09771 0,-1.79051 0,-1.7905 3.02121,0 3.02122,0 2.0359,-1.84773 2.0359,-1.84774 0,-1.41992 c 0,-0.78095 -1.83752,-4.13352 -4.08338,-7.45015 l -4.08337,-6.03023 -1.47945,0 -1.47945,0 0,-2.29124 0,-2.29123 -5.61519,-8.41105 -5.61518,-8.41106 -1.46478,-0.56369 -1.46477,-0.5637 0,-1.67735 0,-1.67736 -4.52665,-6.76695 -4.52666,-6.76695 -7.13068,-6.15473 -7.13067,-6.15474 -1.99688,0 -1.99687,0 0,-1.17215 c 0,-0.64468 -1.16652,-2.7059 -2.59226,-4.58048 l -2.59225,-3.40834 -5.23277,-3.53403 -5.23277,-3.53403 -1.67385,0 -1.67384,0 -0.61447,-2.45521 -0.61446,-2.45522 -9.60775,-8.70224 -9.60776,-8.70226 -1.51879,0 -1.51879,0 0,1.56493 0,1.56492 4.5514,4.87974 4.5514,4.87973 0,1.1943 c 0,0.65687 3.48436,6.66651 7.743,13.35476 l 7.743,12.16045 2.45503,0.61793 2.45501,0.61793 -0.54324,2.08331 -0.54325,2.08331 8.13383,12.45309 8.13384,12.45308 1.86773,0.59449 1.86773,0.59449 -0.0858,1.72784 -0.0858,1.72783 5.8069,9.36981 5.8069,9.36981 2.94235,2.48291 2.94235,2.4829 0,1.18049 c 0,0.64927 1.65768,3.87383 3.68374,7.16569 l 3.68374,5.98519 1.03623,0 1.03623,0 -0.6655,0.66741 -0.66551,0.66741 1.12649,1.36122 1.12649,1.36122 1.49001,0 z m 414.56359,-11.15746 1.34515,0 8.63268,-10.33477 8.63268,-10.33477 0,-1.83701 0,-1.837 0.92172,0 c 0.50695,0 4.52355,-4.22209 8.9258,-9.38241 4.40224,-5.16033 9.45462,-10.83622 11.22751,-12.61311 l 3.22344,-3.23068 0.60357,-3.02651 0.60358,-3.02652 2.29442,-0.57751 2.29443,-0.57751 1.66661,-2.55084 c 0.91663,-1.40295 4.15846,-5.09007 7.20407,-8.19359 l 5.53746,-5.64276 0,-1.45431 0,-1.4543 1.02568,0 c 0.56412,0 2.38331,-1.48344 4.04264,-3.29652 l 3.01697,-3.29653 0.6184,-2.2822 0.61841,-2.28221 1.15463,-0.0581 1.15463,-0.0581 7.32177,-8.95893 c 4.02697,-4.92742 7.60523,-9.69973 7.95168,-10.60514 l 0.62991,-1.64622 -1.25594,-1.51762 -1.25592,-1.51764 -3.91434,-0.62772 -3.91434,-0.62772 0,-1.99919 0,-1.9992 -3.18877,-2.98728 -3.18876,-2.98726 -1.2203,0.2981 c -0.67116,0.16397 -4.47033,4.09275 -8.44259,8.73062 l -7.2223,8.43259 0,1.89587 0,1.89586 -1.96626,0.62586 -1.96625,0.62585 -4.86085,5.78252 c -2.67346,3.1804 -5.50351,6.92338 -6.28897,8.31776 -0.78547,1.39438 -3.90892,5.61621 -6.94103,9.38185 -3.0321,3.76565 -5.92545,6.84663 -6.42967,6.84663 l -0.91677,0 0.63795,2.54905 0.63794,2.54906 -2.89437,1.04767 -2.89438,1.04768 -5.56283,7.03759 c -3.05955,3.87069 -6.81446,7.97135 -8.34424,9.11258 l -2.78141,2.07496 0,1.25613 c 0,0.69086 -1.82056,3.46555 -4.04569,6.16596 l -4.04569,4.90985 -0.0389,1.6646 -0.0389,1.66461 -3.14733,2.02863 -3.14732,2.02863 -4.5992,5.88801 -4.59921,5.888 2.98123,2.44362 2.98123,2.4436 1.70183,0.0365 1.70183,0.0365 0.63366,2.00217 0.63366,2.00218 2.60517,2.05508 c 1.4328,1.13023 3.21045,2.05502 3.95027,2.05502 z m -373.4858,-16.80987 c 1.20606,-0.36563 3.67204,-1.56285 5.47996,-2.66049 l 3.28712,-1.9957 0,-1.34379 0,-1.34378 1.76999,0.43839 1.76999,0.4384 2.88713,-2.34818 2.88712,-2.34818 -4.12879,-3.74077 -4.12879,-3.74078 -1.53975,0.59254 -1.53975,0.59255 0,-2.43405 0,-2.43405 -13.35124,-10.60698 c -7.34318,-5.83384 -13.90332,-10.8352 -14.57809,-11.11414 -0.67476,-0.27894 -3.19805,-2.75794 -5.60731,-5.5089 -2.40926,-2.75096 -8.33384,-8.30154 -13.16573,-12.33462 -4.83189,-4.03309 -9.72718,-7.6327 -10.87842,-7.99913 -1.15123,-0.36643 -2.09315,-1.02208 -2.09315,-1.457 0,-0.43492 -0.7965,-1.67547 -1.76999,-2.75677 -0.97349,-1.0813 -5.58052,-5.3057 -10.23781,-9.38757 l -8.46784,-7.42157 -3.41638,-1.43154 c -1.87902,-0.78735 -3.4164,-1.80286 -3.4164,-2.25671 0,-0.45383 -2.60268,-3.41458 -5.78374,-6.57943 l -5.78375,-5.75427 -2.38544,0 -2.38544,0 -2.86049,2.86867 -2.86049,2.86868 -3.77865,1.44227 -3.77865,1.44228 -1.09976,1.74847 -1.09976,1.74847 3.91525,4.02105 3.91525,4.02104 4.91287,2.11951 4.91289,2.11951 0,1.37697 0,1.37698 6.65078,6.23927 c 3.65792,3.43159 8.9329,8.04834 11.72218,10.25944 l 5.07141,4.02018 1.95705,0 1.95706,0 0.88522,2.33497 0.88523,2.33497 8.4454,7.98119 c 4.64497,4.38965 10.46885,9.27265 12.94197,10.85112 l 4.49656,2.86993 1.82483,0 1.82483,0 0.005,2.28221 0.005,2.28221 10.14645,8.87525 10.14645,8.87525 2.38188,0 2.38186,0 0.60634,2.42278 0.60635,2.42278 3.63186,3.19793 3.63186,3.19793 2.19283,-0.66479 z m 320.84158,-13.65042 2.07342,0.0308 1.23895,-1.2425 1.23895,-1.24249 2.09669,1.31315 2.09669,1.31315 5.71659,-2.83165 5.71659,-2.83165 3.53998,-3.7585 3.53998,-3.7585 0.35099,-1.8486 0.35097,-1.8486 2.8869,-2.53579 2.88689,-2.53579 3.58924,-6.67728 c 1.97407,-3.6725 3.58922,-7.13666 3.58922,-7.69812 l 0,-1.02085 -2.57614,-1.17712 c -1.41689,-0.64743 -3.75619,-1.17713 -5.19847,-1.17713 l -2.62232,0 -1.29426,-1.77505 c -0.71183,-0.97628 -1.67228,-1.78034 -2.13434,-1.78679 -0.46205,-0.006 -2.3339,-0.63845 -4.15965,-1.40442 -1.82576,-0.76598 -3.42931,-1.21714 -3.56345,-1.00258 -0.13414,0.21456 -1.25741,2.37312 -2.49613,4.7968 -1.23873,2.42368 -2.25223,5.17948 -2.25223,6.12401 l 0,1.71733 -4.80426,4.63716 c -2.64234,2.55043 -5.60758,4.9179 -6.58943,5.26103 l -1.78517,0.62387 -1.1305,2.81535 -1.13051,2.81537 0.16079,3.21973 0.16079,3.21972 -1.9406,0.61768 -1.9406,0.61769 -1.25634,3.04174 c -0.69098,1.67295 -1.08128,3.188 -0.86733,3.36678 0.21394,0.17877 1.29927,0.83491 2.41184,1.4581 1.11256,0.62318 2.95588,1.14694 4.09626,1.1639 z m -300.13059,-7.1053 c 0.1719,0.0198 -0.0429,-0.53461 -0.47727,-1.23195 -0.4344,-0.69734 -0.87824,-1.85284 -0.9863,-2.56775 -0.10807,-0.71493 -2.35959,-4.82291 -5.00338,-9.12884 l -4.80691,-7.82896 -5.39214,-5.28082 -5.39214,-5.28081 0,-1.61619 c 0,-0.88889 -0.74163,-3.05444 -1.64808,-4.81233 -0.90645,-1.75788 -5.50085,-8.99632 -10.20977,-16.08542 l -8.56168,-12.88926 -1.92731,-0.50544 -1.92731,-0.50545 0,-1.63369 0,-1.6337 -4.71766,-7.84367 c -2.59471,-4.31403 -6.4883,-10.47994 -8.65242,-13.70205 l -3.93477,-5.85837 -1.96751,-1.23224 -1.96751,-1.23225 0,-1.86266 0,-1.86266 -3.04144,-3.05014 -3.04145,-3.05014 0.52939,-0.85901 0.52938,-0.85901 -0.95028,-0.58898 -0.95027,-0.58898 -3.61763,2.14056 -3.61762,2.14055 0,1.42128 0,1.42129 -1.48282,0 c -0.81555,0 -3.07125,0.75963 -5.01265,1.68807 -1.94141,0.92844 -3.73392,2.22144 -3.98337,2.87334 l -0.45353,1.18527 4.91192,7.72168 4.91194,7.72168 2.6279,1.72679 2.6279,1.72679 -0.58119,1.51889 -0.58119,1.51889 5.21143,7.71348 c 2.86629,4.24242 5.94959,8.41408 6.85178,9.27036 0.9022,0.85628 2.75622,3.76301 4.12006,6.45941 l 2.47969,4.90255 4.96792,4.19089 c 2.73236,2.30499 6.95215,5.86788 9.37731,7.91755 2.42515,2.04967 5.26712,3.99969 6.31548,4.33338 1.04836,0.33369 3.72518,2.30821 5.94849,4.38784 2.22331,2.07964 4.22243,4.29945 4.44249,4.93292 0.22008,0.63347 5.79976,5.88255 12.3993,11.66462 6.59954,5.78207 12.97151,11.06722 14.15992,11.7448 1.18841,0.67758 2.3014,1.24813 2.4733,1.26789 z m 284.10278,0.0322 c 0.11304,0.002 1.13711,-2.10821 2.27571,-4.68956 1.13859,-2.58134 2.07017,-5.33847 2.07017,-6.12696 0,-0.78848 0.97534,-2.75659 2.16741,-4.37358 l 2.16743,-2.93998 0.77674,-7.92283 c 0.4272,-4.35756 1.23889,-9.40011 1.80375,-11.20568 l 1.02702,-3.28284 -0.93691,-0.5807 -0.93691,-0.58069 0,-1.81377 0,-1.81377 2.1267,-0.95167 2.1267,-0.95167 5.84328,-13.83139 5.8433,-13.83138 3.66138,-6.0445 3.66137,-6.0445 0,-4.0832 0,-4.08319 2.02284,0.53049 2.02285,0.5305 0,-1.55587 0,-1.55585 6.16859,-6.42338 6.1686,-6.42338 2.41778,-4.76305 2.41777,-4.76306 -0.56044,-1.46466 -0.56045,-1.46467 2.59402,-2.60143 2.59401,-2.60142 0,-2.56257 0,-2.56257 -2.56542,-0.64572 -2.56542,-0.64572 -6.11205,0.44337 -6.11205,0.44337 -0.67819,1.04117 c -0.37301,0.57264 -1.92983,1.34836 -3.45961,1.72382 l -2.78141,0.68266 0,0.99499 0,0.99499 -1.06156,0 c -0.58385,0 -2.74577,1.65196 -4.80426,3.67103 -2.05848,2.01907 -3.64347,4.02928 -3.52218,4.46713 0.12129,0.43786 -0.44763,1.35221 -1.26427,2.0319 l -1.4848,1.23579 0,1.90444 0,1.90443 -0.9246,0 c -0.50852,0 -2.55665,1.58948 -4.5514,3.53218 l -3.62681,3.53218 0,1.63647 c 0,0.90006 -0.64752,2.848 -1.43893,4.32876 -0.79141,1.48076 -2.37098,4.74846 -3.51014,7.26156 l -2.07122,4.56928 0.59384,2.27734 0.59384,2.27735 -1.13642,0 -1.13641,0 -5.47521,11.41104 c -3.01136,6.27608 -6.64931,14.79982 -8.08435,18.94165 -1.43503,4.14183 -2.60915,8.3186 -2.60915,9.28169 0,0.9631 -1.1334,4.19273 -2.51867,7.17696 l -2.51868,5.42587 -0.0101,2.22985 c -0.005,1.22642 1.11401,5.79083 2.48765,10.14314 l 2.49753,7.9133 2.05388,1.27649 2.05386,1.27649 0,2.03494 0,2.03495 3.28713,2.00992 c 1.80792,1.10547 3.37961,2.01164 3.49265,2.01372 z m -231.106,-15.5162 3.99306,-0.53712 1.96824,-1.78633 1.96825,-1.78632 1.18981,1.19321 1.1898,1.19321 2.74926,0 c 1.5121,0 3.4692,-0.27705 4.34912,-0.61568 l 1.59986,-0.61568 -0.006,-3.69516 c -0.003,-2.03233 -0.48305,-5.52092 -1.06656,-7.75242 -0.5835,-2.23149 -1.31795,-4.74192 -1.6321,-5.57873 -0.31414,-0.83681 -0.69711,-3.80368 -0.85104,-6.59304 -0.15393,-2.78937 -1.02699,-9.40777 -1.94014,-14.70757 l -1.66027,-9.63598 -5.15486,-15.21472 -5.15487,-15.21473 -1.3112,-1.52346 -1.31122,-1.52346 -2.14752,-10.64832 -2.14794,-10.64831 -2.72659,-3.95267 c -1.49962,-2.17397 -3.03199,-4.45617 -3.40527,-5.07157 -0.37326,-0.6154 -1.90793,-5.68332 -3.41037,-11.26205 l -2.7317,-10.14315 -1.96846,-2.78936 -1.96848,-2.78937 -2.45968,0 -2.45968,0 0.0242,3.29652 c 0.0132,1.81309 0.51238,5.12229 1.10912,7.35379 0.59675,2.23149 1.49052,8.16523 1.98616,13.18609 l 0.90116,9.12883 2.11644,8.11452 2.11644,8.11451 0.88629,8.39339 c 0.48745,4.61637 1.21412,8.92538 1.61483,9.57557 0.40069,0.65021 0.81464,3.65504 0.91986,6.6774 l 0.19134,5.4952 1.39993,0.88915 1.39993,0.88914 -0.88241,0.0155 -0.88242,0.0155 1.29469,1.56445 1.29469,1.56446 -1.12351,1.12672 -1.1235,1.12671 1.04197,1.95251 1.04197,1.95249 -0.52766,1.37899 -0.52766,1.37899 1.81743,10.50012 1.81744,10.50013 1.2546,2.35092 1.25459,2.35094 -1.02217,1.02509 -1.02217,1.0251 0.50899,3.684 c 0.27994,2.0262 0.74074,4.36867 1.02399,5.20548 0.28326,0.83681 0.64596,3.41789 0.806,5.73573 0.16002,2.31784 0.63118,4.76632 1.04701,5.44106 l 0.75605,1.22682 3.99307,-0.53711 z m 191.52328,-1.72335 2.14674,0 1.81531,-2.01162 1.8153,-2.01162 -0.76039,-6.86364 c -0.41822,-3.77499 -0.90211,-15.68964 -1.07531,-26.47699 l -0.31491,-19.61335 -1.5435,-1.71042 -1.54349,-1.71042 0.94477,-1.49831 0.94476,-1.4983 -0.009,-16.73619 -0.009,-16.73619 -1.09273,-4.05726 c -0.601,-2.2315 -0.99392,-5.19837 -0.87315,-6.59305 0.12078,-1.39468 0.16088,-9.15419 0.0891,-17.24335 -0.0717,-8.08916 -0.3449,-15.67677 -0.60699,-16.86137 l -0.47654,-2.1538 -3.05319,-1.26829 -3.05319,-1.26829 -2.88071,0.57779 -2.88071,0.57778 -0.94693,-0.94963 -0.94693,-0.94964 -4.85549,-0.66742 -4.8555,-0.66743 0.66572,15.11168 0.66572,15.11167 1.11442,2.28221 1.11443,2.2822 -1.20397,2.28221 -1.20397,2.28221 0.62969,9.63599 c 0.34633,5.29979 0.70526,18.81825 0.79762,30.04101 l 0.16793,20.40503 1.2228,1.47759 1.22279,1.47759 -0.99684,0.99969 -0.99685,0.9997 0.67195,19.37805 0.67194,19.37806 2.31017,1.2399 2.31017,1.23991 4.36019,-0.007 4.36019,-0.007 1.99504,1.39047 1.99503,1.39047 2.14676,0 z m -151.85118,-5.07158 3.22282,0 1.85303,-1.35883 1.85303,-1.35884 4.73121,0.4559 4.73122,0.45592 1.70046,-1.70531 1.70044,-1.70531 0.25286,-19.96027 c 0.13907,-10.97814 0.18625,-24.95264 0.10485,-31.05444 l -0.148,-11.09418 -1.41548,-1.07759 -1.41546,-1.0776 0.40959,-4.92598 0.40961,-4.92598 -1.18656,-6.0484 c -0.6526,-3.32663 -1.41184,-7.92275 -1.68718,-10.2136 -0.27533,-2.29085 -1.02819,-5.11189 -1.67301,-6.26896 l -1.1724,-2.10378 -0.0657,-6.08589 c -0.0361,-3.34724 -0.63303,-10.87852 -1.32643,-16.73619 -0.6934,-5.85767 -1.72069,-12.36196 -2.28286,-14.45399 l -1.02206,-3.80368 -2.48796,0 -2.48796,0 -0.0818,0.76074 c -0.045,0.41841 -0.22742,8.0638 -0.40531,16.98977 -0.1779,8.92597 -0.3636,20.56523 -0.4127,25.86503 -0.049,5.29979 -0.19765,10.54887 -0.33013,11.66461 -0.13246,1.11575 -0.15693,7.33369 -0.0544,13.81765 l 0.1865,11.78902 2.15234,14.076 c 1.18379,7.74181 2.39957,17.61344 2.70174,21.93695 l 0.54939,7.86094 -1.5874,0 c -0.87307,0 -1.80644,-0.35544 -2.07415,-0.78985 -0.26773,-0.43442 -2.12787,-10.1338 -4.13367,-21.55418 -2.00579,-11.4204 -4.28204,-23.41567 -5.05831,-26.65617 l -1.41142,-5.89184 -1.78088,-2.72572 -1.78087,-2.72572 -0.12838,-4.56854 -0.12839,-4.56854 -4.23156,-11.07188 -4.23156,-11.07188 -1.52228,-1.68692 -1.52229,-1.68692 0,-3.10126 0,-3.10125 -2.65138,-7.97634 c -1.45826,-4.38698 -3.05039,-8.74349 -3.53808,-9.68113 l -0.88669,-1.70479 -3.17555,0.91333 c -1.74654,0.50234 -3.90932,1.57633 -4.80615,2.38666 l -1.63063,1.47332 -4.8302,-1.11229 -4.83021,-1.11228 -1.12869,1.13192 -1.12869,1.13192 1.21822,6.20979 c 0.67002,3.41539 2.11604,8.31032 3.21338,10.87763 1.09734,2.56731 2.60765,5.16275 3.35626,5.76764 l 1.36109,1.09981 0.59966,4.07164 0.59967,4.07164 3.64759,8.60729 3.64759,8.6073 2.2563,2.06894 2.2563,2.06893 -0.8396,3.00264 -0.83962,3.00264 4.21517,11.66461 4.21516,11.66462 2.00035,2.2306 2.00036,2.2306 -0.6301,1.64669 -0.63009,1.64668 7.18884,21.48059 c 3.95387,11.81431 7.64911,22.05113 8.21165,22.74847 l 1.02281,1.26789 3.22282,0 z m -21.17041,-52.74436 c -0.27814,0 -0.50571,-0.22822 -0.50571,-0.50716 0,-0.27893 0.22757,-0.50715 0.50571,-0.50715 0.27814,0 0.50571,0.22822 0.50571,0.50715 0,0.27894 -0.22757,0.50716 -0.50571,0.50716 z m 109.8303,47.67279 3.64124,0 1.79352,-1.98747 1.7935,-1.98747 0.52898,-4.85915 0.52898,-4.85916 1.24865,-0.74064 1.24865,-0.74065 2.22843,-5.8524 c 1.22563,-3.21882 2.59677,-6.53706 3.04698,-7.37387 l 0.81856,-1.52147 1.88287,0.24989 c 1.03559,0.13745 4.77919,0.55062 8.31911,0.91817 l 6.43624,0.66827 -0.81389,-3.45395 -0.81391,-3.45396 0.20991,-6.20148 0.2099,-6.20148 -1.28083,-1.01244 c -0.70447,-0.55684 -2.58835,-1.32635 -4.18641,-1.71003 l -2.90557,-0.69759 0.75155,-3.75311 c 0.41335,-2.06421 0.81058,-5.16515 0.88272,-6.891 l 0.13117,-3.13788 1.13544,-1.42653 c 0.62448,-0.78459 2.05096,-3.53311 3.16995,-6.10781 l 2.03451,-4.68128 -0.15543,-11.0406 -0.15544,-11.04059 -0.82588,-1.31233 -0.82589,-1.31232 1.18295,-1.42945 1.18296,-1.42945 -1.28698,-13.1969 -1.28697,-13.19691 -2.90466,7.31701 c -1.59756,4.02435 -3.6105,8.76158 -4.47322,10.52718 l -1.56854,3.21018 0.6351,1.03057 0.63512,1.03057 -1.15365,0.71503 c -0.63451,0.39327 -2.45222,3.58715 -4.03935,7.09751 -1.58714,3.51036 -4.07978,10.63731 -5.53919,15.83767 -1.45942,5.20035 -2.88009,10.89718 -3.15705,12.65962 l -0.50354,3.20443 -1.78586,0.46835 -1.78587,0.46835 -0.65137,3.42743 c -0.35824,1.88508 -2.69562,8.44511 -5.19416,14.57785 l -4.5428,11.15044 0,2.82823 0,2.82822 -1.50918,0.58079 -1.50917,0.58077 -1.44692,4.71254 c -0.79579,2.5919 -3.03965,8.59229 -4.98636,13.33421 l -3.53946,8.62167 0.80905,0.83959 c 0.44499,0.46177 2.54177,1.23148 4.65951,1.71048 l 3.85043,0.8709 2.04514,-1.09766 2.04515,-1.09765 1.05001,1.66938 1.05001,1.66938 z m -45.61266,-1.55696 c 1.94276,-0.36071 3.99089,-0.95673 4.5514,-1.32448 l 1.01913,-0.66866 5.56283,0 5.56282,0 -0.0611,-3.5501 c -0.0336,-1.95256 -0.34277,-5.14765 -0.68699,-7.10021 -0.34421,-1.95255 -1.38146,-8.7778 -2.30498,-15.16721 l -1.67912,-11.61713 -1.54147,-3.86352 -1.54147,-3.86352 0.53805,-2.06338 0.53805,-2.06339 -0.96092,-10.34962 -0.96091,-10.34963 -1.88512,-3.84639 -1.88512,-3.84638 0.49207,-1.88704 0.49205,-1.88704 -1.04811,-5.42404 c -0.57647,-2.98322 -1.35263,-9.2418 -1.7248,-13.90796 l -0.6767,-8.48392 -1.6661,-1.67087 -1.66612,-1.67088 0.37067,-1.93022 0.37063,-1.93023 -1.74795,-11.75137 -1.74795,-11.75138 -0.86761,-1.09504 -0.86761,-1.09505 -3.30632,0.46174 c -1.81848,0.25396 -3.76146,0.79588 -4.31774,1.20426 l -1.01142,0.74252 -5.39237,0.0888 -5.39237,0.0888 -1.43474,1.19413 -1.43473,1.19413 0,2.19054 c 0,1.2048 0.71079,4.68633 1.57953,7.73674 l 1.57952,5.5462 0.34979,7.1002 0.3498,7.10021 2.27933,8.11451 2.27934,8.11452 -0.21457,4.82722 -0.21458,4.82721 2.59653,15.18261 c 1.42808,8.35042 3.01488,16.28614 3.52621,17.6349 l 0.92971,2.45231 1.32965,0.44858 1.32964,0.44859 -1.35344,1.6445 -1.35342,1.64451 1.27511,11.19937 1.27511,11.19939 0.83688,0 0.83689,0 0.0248,5.32515 c 0.0136,2.92883 0.48689,7.37914 1.05177,9.88957 l 1.02705,4.56441 1.72963,1.32448 1.72965,1.3245 3.53227,-0.65584 z m 220.59574,-45.10151 3.89588,0 1.65418,-3.20798 1.65417,-3.20798 0.14179,-4.1458 0.14178,-4.14581 1.26007,-1.01431 1.26009,-1.01432 1.12188,-6.08589 1.12189,-6.08588 -1.29216,-6.91167 -1.29215,-6.91166 -1.68786,-1.20285 c -0.92833,-0.66157 -2.22135,-2.2113 -2.87338,-3.44384 -0.65204,-1.23253 -2.78231,-3.46238 -4.73393,-4.95522 l -3.54841,-2.71424 -2.00774,1.82217 -2.00773,1.82217 0.17166,1.10442 c 0.0944,0.60743 -0.18464,2.47375 -0.62012,4.14737 -0.43548,1.67362 -1.34995,3.49938 -2.03217,4.05726 -0.68222,0.55787 -1.92574,2.38364 -2.76338,4.05725 l -1.52298,3.04295 0.16762,9.38241 0.16761,9.38241 -0.87452,0 -0.87451,0 -1.54046,3.69738 -1.54046,3.69737 1.3392,0.85151 c 0.73657,0.46833 1.61094,0.8585 1.94303,0.86704 0.33209,0.008 1.65337,0.92842 2.93617,2.04416 l 2.33236,2.02863 1.74424,0 1.74425,0 1.25911,1.52147 1.25911,1.52148 z"
         style="fill:#452f10" />
    </g>
  </g>
</svg>
